<?xml version="1.0" encoding="UTF-8"?>
<svg width="511px" height="110px" viewBox="0 0 511 110" version="1.1" xmlns="http://www.w3.org/2000/svg" xmlns:xlink="http://www.w3.org/1999/xlink">
    <title>esg_dark</title>
    <defs>
        <linearGradient x1="37.8415946%" y1="90.0114109%" x2="88.2605801%" y2="36.8738541%" id="linearGradient-1">
            <stop stop-color="#162F92" offset="0%"></stop>
            <stop stop-color="#0F4CB0" offset="34%"></stop>
            <stop stop-color="#0A61C6" offset="51%"></stop>
            <stop stop-color="#0B5DC1" offset="61%"></stop>
            <stop stop-color="#0F50B4" offset="73%"></stop>
            <stop stop-color="#143B9E" offset="84%"></stop>
            <stop stop-color="#173193" offset="100%"></stop>
        </linearGradient>
        <linearGradient x1="88.2172516%" y1="-6.57598337%" x2="-5.95107655%" y2="77.0195807%" id="linearGradient-2">
            <stop stop-color="#305BA6" offset="17%"></stop>
            <stop stop-color="#5FBAA8" offset="52%"></stop>
            <stop stop-color="#2E58A6" offset="93%"></stop>
        </linearGradient>
    </defs>
    <g id="Branding" stroke="none" stroke-width="1" fill="none" fill-rule="evenodd">
        <g transform="translate(-33.000000, -288.000000)" fill-rule="nonzero" id="esg_dark">
            <g transform="translate(33.300990, 288.240000)">
                <path d="M157.9509,86.25526 C170.0282,86.25526 179.48,80.05908 183.47076,70.39724 L172.44366,70.39724 C169.39808,74.9131 164.67218,77.0135 157.9509,77.0135 C148.91918,77.0135 141.98786,71.86752 140.51758,62.62576 L185.67618,62.62576 L185.67618,58.95006 C185.67618,43.19706 174.33402,31.64486 157.9509,31.64486 C141.56778,31.64486 130.01558,43.19706 130.01558,58.95006 C130.01558,74.70306 141.56778,86.25526 157.9509,86.25526 Z M175.17418,53.69906 L140.83264,53.69906 C142.82802,45.5075 149.33926,40.88662 157.9509,40.88662 C166.3525,40.88662 173.1788,45.40248 175.17418,53.69906 Z M213.50648,86.25526 C226.52896,86.25526 235.03558,79.42896 235.03558,68.92696 C235.03558,59.1395291 227.534949,56.2812528 219.839161,54.93194 L219.261725,54.8334862 C218.587889,54.7217266 217.913958,54.6204826 217.244825,54.526123 L216.672571,54.4468447 C216.482288,54.4209241 216.29251,54.3954808 216.103352,54.3704301 L215.537854,54.2963713 C215.35005,54.2720212 215.162981,54.247979 214.97676,54.22416 C208.57054,53.384 203.1095,52.8589 203.1095,47.92296 C203.1095,43.82718 206.89022,40.67658 213.50648,40.67658 C219.80768,40.67658 223.48338,43.61714 223.79844,47.6079 L233.67032,47.6079 C233.46028,38.6812 225.79382,31.64486 213.40146,31.64486 C201.0091,31.64486 193.02758,38.57618 193.02758,48.76312 C193.02758,60.63038 203.94966,62.3107 212.98138,63.46592 C219.49262,64.30608 224.95366,64.9362 224.95366,69.87214 C224.95366,73.96792 221.06792,77.22354 213.50648,77.22354 C206.2601,77.22354 202.26934,74.17796 202.0593,69.87214 L191.97738,69.87214 C192.29244,79.32394 200.484,86.25526 213.50648,86.25526 Z M269.48214,108.41448 C284.81506,108.41448 296.99738,100.643 296.99738,80.6892 L296.99738,59.37014 C296.99738,42.67196 285.65522,31.64486 269.2721,31.64486 C252.88898,31.64486 241.33678,43.19706 241.33678,58.95006 C241.33678,76.59342 254.14922,85.83518 267.59178,85.83518 C276.30844,85.83518 283.55482,81.84442 287.1255,75.12314 L287.1255,81.10928 C287.1255,94.65686 280.08916,99.69782 269.48214,99.69782 C261.9207,99.69782 255.82954,97.07232 253.41408,91.08618 L243.22714,91.08618 C246.79782,103.05846 256.77472,108.41448 269.48214,108.41448 Z M269.2721,76.4884 C258.56006,76.4884 251.4187,69.45206 251.4187,58.95006 C251.4187,48.44806 258.56006,40.88662 269.2721,40.88662 C279.98414,40.88662 287.1255,48.44806 287.1255,58.95006 C287.1255,69.45206 279.98414,76.4884 269.2721,76.4884 Z M315.16584,49.39324 C319.1566,49.39324 322.09716,46.45268 322.09716,42.46192 C322.09716,38.47116 319.1566,35.5306 315.16584,35.5306 C311.17508,35.5306 308.23452,38.47116 308.23452,42.46192 C308.23452,46.45268 311.17508,49.39324 315.16584,49.39324 Z M315.16584,86.25526 C319.1566,86.25526 322.09716,83.3147 322.09716,79.32394 C322.09716,75.33318 319.1566,72.39262 315.16584,72.39262 C311.17508,72.39262 308.23452,75.33318 308.23452,79.32394 C308.23452,83.3147 311.17508,86.25526 315.16584,86.25526 Z M359.16922,86.25526 C375.55234,86.25526 387.10454,74.70306 387.10454,58.95006 C387.10454,43.19706 375.55234,31.64486 359.16922,31.64486 C342.7861,31.64486 331.2339,43.19706 331.2339,58.95006 C331.2339,74.70306 342.7861,86.25526 359.16922,86.25526 Z M359.16922,77.0135 C348.45718,77.0135 341.31582,69.45206 341.31582,58.95006 C341.31582,48.44806 348.45718,40.88662 359.16922,40.88662 C369.88126,40.88662 377.02262,48.44806 377.02262,58.95006 C377.02262,69.45206 369.88126,77.0135 359.16922,77.0135 Z M405.273,84.89 L405.273,57.89986 C405.273,46.66272 411.46918,40.88662 420.92098,40.88662 C430.37278,40.88662 436.56896,46.66272 436.56896,57.89986 L436.56896,84.89 L446.54586,84.89 L446.54586,57.89986 C446.54586,40.46654 436.2539,31.64486 420.92098,31.64486 C405.58806,31.64486 395.2961,40.57156 395.2961,57.89986 L395.2961,84.89 L405.273,84.89 Z M482.67274,86.25526 C494.75004,86.25526 504.20184,80.05908 508.1926,70.39724 L497.1655,70.39724 C494.11992,74.9131 489.39402,77.0135 482.67274,77.0135 C473.64102,77.0135 466.7097,71.86752 465.23942,62.62576 L510.39802,62.62576 L510.39802,58.95006 C510.39802,43.19706 499.05586,31.64486 482.67274,31.64486 C466.28962,31.64486 454.73742,43.19706 454.73742,58.95006 C454.73742,74.70306 466.28962,86.25526 482.67274,86.25526 Z M499.89602,53.69906 L465.55448,53.69906 C467.54986,45.5075 474.0611,40.88662 482.67274,40.88662 C491.07434,40.88662 497.90064,45.40248 499.89602,53.69906 Z" id="esg:one" fill="#8F9393"></path>
                <g id="icon" transform="translate(0.000000, 0.000000)">
                    <path d="M2.14798906e-14,72.6168597 L2.14798906e-14,86.9478917 C2.14798906e-14,99.1253257 9.87176077,108.997086 22.0491948,108.997086 L84.9508052,108.997086 C97.1282392,108.997086 107,99.1253257 107,86.9478917 L107,22.0057388 C107,9.82483402 97.1354888,0.476126572 84.9508052,0.476126572 L70.4950735,0.377878231 L70.4950735,72.6168597 L2.14798906e-14,72.6168597 Z" id="Path" fill="url(#linearGradient-1)"></path>
                    <path d="M107,36.3764479 L107,22.045416 C106.997913,9.86945772 97.1267637,0 84.9508052,0 L22.0491948,0 C9.87176077,0 2.14798906e-14,9.87176077 2.14798906e-14,22.0491948 L2.14798906e-14,86.9875689 C2.14798906e-14,92.8353789 2.3230335,98.4436779 6.45805964,102.578704 C10.5930858,106.71373 16.2013848,109.036764 22.0491948,109.036764 L36.5729446,108.98575 L36.5105947,36.3764479 L107,36.3764479 Z" id="Path" fill="url(#linearGradient-2)"></path>
                </g>
            </g>
        </g>
    </g>
</svg>