<?xml version="1.0" encoding="UTF-8"?>
<svg width="172px" height="172px" viewBox="0 0 172 172" version="1.1" xmlns="http://www.w3.org/2000/svg" xmlns:xlink="http://www.w3.org/1999/xlink">
    <title>cdp</title>
    <g id="cdp" stroke="none" stroke-width="1" fill="none" fill-rule="evenodd">
        <g id="Cdp_logo_as_of_2017" transform="translate(18.353418, 0.000000)" fill-rule="nonzero">
            <g id="Group" transform="translate(0.000000, 0.000000)">
                <g id="g3126" transform="translate(79.944941, 30.749012) scale(-1, 1) rotate(-180.000000) translate(-79.944941, -30.749012) translate(49.195929, 0.000000)" fill="#B31F2F">
                    <polygon id="path3128" points="61.498024 61.498024 61.498024 0 0 61.498024"></polygon>
                </g>
                <g id="g3130" transform="translate(79.944941, 92.248518) scale(-1, 1) rotate(-180.000000) translate(-79.944941, -92.248518) translate(49.195929, 61.497036)" fill="#B31F2F">
                    <polygon id="path3132" points="61.498024 61.502964 61.498024 0 0 61.502964"></polygon>
                </g>
                <g id="g3134" transform="translate(24.598716, 86.098222) scale(-1, 1) rotate(-180.000000) translate(-24.598716, -86.098222) translate(-0.000000, 61.497036)" fill="#D2103E">
                    <polygon id="path3136" points="49.1974312 49.2023712 49.1974312 0 0 49.2023712"></polygon>
                </g>
                <g id="g3138" transform="translate(30.740614, 43.051087) scale(-1, 1) rotate(-180.000000) translate(-30.740614, -43.051087) translate(12.289725, 24.600198)" fill="#D2103E">
                    <polygon id="path3140" points="36.9017784 36.9017784 36.9017784 0 0 36.9017784"></polygon>
                </g>
                <g id="g3142" transform="translate(122.992570, 73.797629) scale(-1, 1) rotate(-180.000000) translate(-122.992570, -73.797629) translate(110.691977, 61.497036)" fill="#D2103E">
                    <polygon id="path3144" points="24.6011856 24.6011856 24.6011856 0 0 24.6011856"></polygon>
                </g>
            </g>
            <g id="g3146" transform="translate(67.646582, 148.557034) scale(-1, 1) rotate(-180.000000) translate(-67.646582, -148.557034) translate(16.287988, 130.374222)" fill="#B31F2F">
                <g id="g3148-Clipped" transform="translate(0.000000, 0.000000)">
                    <g id="g3148" transform="translate(0.000000, 0.000000)">
                        <g id="g3154" transform="translate(0.000000, 0.000000)">
                            <path d="M18.0304687,0 C24.8109375,0 28.828125,2.41171875 32.446875,6.27890625 L27.525,11.2523437 C24.7617187,8.73984375 22.3007812,7.134375 18.2835937,7.134375 C12.2554687,7.134375 8.0859375,12.1570312 8.0859375,18.1828125 L8.0859375,18.2835937 C8.0859375,24.3117187 12.35625,29.23125 18.2835937,29.23125 C21.796875,29.23125 24.5601562,27.7265625 27.271875,25.265625 L32.1960937,30.9421875 C28.93125,34.1554687 24.9632812,36.365625 18.3304687,36.365625 C7.5328125,36.365625 0,28.1789062 0,18.1828125 L0,18.0820312 C0,7.9875 7.68515625,0 18.0304687,0 M37.115625,0.60234375 L50.8289062,0.60234375 C61.8773437,0.60234375 69.515625,8.2875 69.515625,18.1828125 L69.515625,18.2835937 C69.515625,28.1789062 61.8773437,35.7632812 50.8289062,35.7632812 L34.565625,35.7632812 L34.565625,28.7179687 L37.115625,28.7578125 L37.115625,0.60234375 Z M44.85,7.584375 L44.85,28.78125 L50.8289062,28.78125 C57.1570312,28.78125 61.4273437,24.4125 61.4273437,18.1828125 L61.4273437,18.0820312 C61.4273437,11.8546875 57.1570312,7.584375 50.8289062,7.584375 L44.85,7.584375 Z M74.8898437,0.60234375 L82.621875,0.60234375 L82.621875,11.1515625 L88.5023437,11.1515625 C96.384375,11.1515625 102.717187,15.3703125 102.717187,23.5054687 L102.717187,23.6085937 C102.717187,30.7898437 97.6429687,35.7632812 89.2523437,35.7632812 L72.384375,35.7632812 L72.384375,28.7578125 L74.8898437,28.809375 L74.8898437,0.60234375 Z M82.621875,18.0304687 L82.621875,28.78125 L88.6007812,28.78125 C92.4679687,28.78125 94.8796875,26.925 94.8796875,23.45625 L94.8796875,23.3578125 C94.8796875,20.3414062 92.6203125,18.0304687 88.7507812,18.0304687 L82.621875,18.0304687 L82.621875,18.0304687 Z" id="path3156"></path>
                        </g>
                    </g>
                </g>
            </g>
        </g>
    </g>
</svg>