<?xml version="1.0" encoding="UTF-8"?>
<svg width="273px" height="273px" viewBox="0 0 273 273" version="1.1" xmlns="http://www.w3.org/2000/svg" xmlns:xlink="http://www.w3.org/1999/xlink">
    <title>pri</title>
    <g id="pri" stroke="none" stroke-width="1" fill="none" fill-rule="evenodd">
        <g id="Principles_for_Responsible_Investment_logo" transform="translate(55.318821, 0.000000)" fill-rule="nonzero">
            <g id="Group-2" transform="translate(-0.000000, 0.000000)">
                <rect id="Rectangle" fill="#00B8F1" x="115.932869" y="7.0896629e-14" width="46.0427469" height="46.036651"></rect>
                <rect id="Rectangle" fill="#008DD1" x="115.932869" y="57.9786265" width="46.0427469" height="46.036651"></rect>
                <rect id="Rectangle" fill="#034DA9" x="115.932869" y="115.957253" width="46.0427469" height="46.0427469"></rect>
                <rect id="Rectangle" fill="#00B8F1" x="57.9481468" y="57.9786265" width="46.0488429" height="46.036651"></rect>
                <rect id="Rectangle" fill="#008DD1" x="57.9664346" y="115.999925" width="46.0000753" height="46.0000753"></rect>
                <rect id="Rectangle" fill="#00B8F1" x="-3.08246213e-15" y="115.999925" width="46.0061712" height="46.0000753"></rect>
            </g>
            <g id="Group" transform="translate(0.000000, 179.681516)" fill="#2B2E34">
                <path d="M3.55271368e-14,93.3184842 L3.55271368e-14,-7.10542736e-15 L33.4048135,-7.10542736e-15 C41.1087525,-7.10542736e-15 47.2634726,1.08199417 54.1348382,6.4498094 C60.3000972,11.1852904 63.9746618,19.3388893 63.9746618,28.2723671 C63.9746618,41.5830032 53.9240601,55.7297257 35.3018163,55.7297257 L11.6525151,55.7297257 L11.6525151,93.3184842 L3.55271368e-14,93.3184842 Z M11.6525151,44.8887062 L34.7608192,44.8887062 C46.2938934,44.8887062 52.3221466,36.327603 52.3221466,27.8648628 C52.3221466,21.569624 50.0035877,16.8341431 45.4507811,13.7919127 C41.7586516,11.336348 38.4213319,10.8445325 34.2233351,10.8445325 L11.6525151,10.8445325" id="Shape"></path>
                <path d="M125.683459,93.3184842 L105.810599,52.2167576 L84.750355,52.2167576 L84.750355,93.3184842 L73.0978399,93.3184842 L73.0978399,-7.10542736e-15 L109.207639,-7.10542736e-15 C117.217206,-7.10542736e-15 123.136557,1.91105464 127.85096,5.99663652 C133.633306,10.9112789 136.946035,17.9899096 136.946035,25.4338889 C136.946035,37.3779804 130.338142,46.8173257 119.265266,50.6745646 L117.656327,51.2366395 L138.895732,93.3184842 L125.683459,93.3184842 Z M84.750355,42.1837208 L108.26265,42.1837208 C120.582629,42.1837208 126.105015,33.7701622 126.105015,25.4338889 C126.105015,20.1679498 124.155318,15.8575379 120.624785,13.2930712 C117.547425,10.9780253 114.199566,10.0330368 109.081172,10.0330368 L84.750355,10.0330368" id="Shape"></path>
                <rect id="Rectangle" x="150.713357" y="-7.10542736e-15" width="11.6490022" height="93.3184842"></rect>
            </g>
        </g>
    </g>
</svg>