<?xml version="1.0" encoding="UTF-8"?>
<svg width="500px" height="500px" viewBox="0 0 500 500" version="1.1" xmlns="http://www.w3.org/2000/svg" xmlns:xlink="http://www.w3.org/1999/xlink">
    <title>sasb</title>
    <g id="sasb" stroke="none" stroke-width="1" fill="none" fill-rule="evenodd">
        <g id="sustainability-accounting-standards-board-sasb-vector-logo" fill-rule="nonzero">
            <ellipse id="Oval" fill="#FFFFFF" cx="249.2" cy="253.7" rx="189.8" ry="194.3"></ellipse>
            <g id="Group">
                <g>
                    <path d="M250,0 C111.9,0 0,111.9 0,250 C0,388.1 111.9,500 250,500 C388.1,500 500,388.1 500,250 C500,111.9 388.1,0 250,0 Z M250,432.2 C149.4,432.2 67.8,350.7 67.8,250 C67.8,149.3 149.4,67.8 250,67.8 C350.6,67.8 432.2,149.4 432.2,250 C432.2,350.6 350.6,432.2 250,432.2 Z" id="Shape" fill="#888B8D"></path>
                    <g transform="translate(21.785852, 21.700000)" fill="#FFFFFF">
                        <g transform="translate(37.414148, 339.381468)">
                            <path d="M23,12.8185321 C22.7,11.2185321 22,9.61853207 21.1,8.21853207 C20.1,6.91853207 18.4,5.51853207 16.2,7.11853207 C12.9,9.51853207 20.2,17.0185321 13.7,21.6185321 C9.4,24.6185321 5.4,22.2185321 2.7,18.4185321 C1.3,16.3185321 0.8,15.1185321 -2.84217094e-14,12.8185321 L3.8,10.7185321 C4,12.6185321 4.6,14.4185321 5.7,16.0185321 C6.7,17.4185321 8.9,19.0185321 10.6,17.8185321 C14.3,15.3185321 6.8,7.81853207 13.3,3.21853207 C17.6,0.218532065 21.6,2.41853207 24,5.91853207 C25.1,7.71853207 26.1,9.21853207 26.5,11.0185321 L23,12.8185321 Z" id="Path"></path>
                            <polygon id="Path" points="33.5 24.7185321 29 19.6185321 31.9 17.1185321 44.2 31.0185321 41.3 33.5185321 36.8 28.4185321 21.8 41.8185321 18.6 38.1185321"></polygon>
                            <path d="M53.4,39.7185321 L57.4,43.4185321 L48.6,67.4185321 L44.6,63.9185321 L46.7,58.5185321 L39.5,52.1185321 L34.2,54.8185321 L30.5,51.5185321 L53.4,39.7185321 Z M52.3,45.1185321 L52.3,45.1185321 L43.1,50.2185321 L48.4,54.8185321 L52.3,45.1185321 Z" id="Shape"></path>
                            <polygon id="Path" points="71.2 54.5185321 76.1 57.7185321 74 77.6185321 74 77.6185321 83.7 62.6185321 87.5 65.1185321 74.4 85.2185321 69.5 82.0185321 71.6 62.1185321 71.6 62.1185321 61.9 77.1185321 58.1 74.6185321"></polygon>
                            <path d="M97,70.4185321 L102.9,73.1185321 C109.6,76.1185321 114.4,81.1185321 110.4,89.7185321 C106.4,98.3185321 99.6,97.8185321 92.9,94.8185321 L87,92.1185321 L97,70.4185321 Z M93,90.7185321 L95.4,91.8185321 C99.1,93.6185321 103.8,92.4185321 105.9,87.7185321 C108.1,82.9185321 105.7,78.6185321 102.2,77.0185321 L99.8,75.9185321 L93,90.7185321 Z" id="Shape"></path>
                            <path d="M130.4,83.8185321 L135.7,85.4185321 L137.9,110.918532 L132.8,109.518532 L132.3,103.618532 L123.1,100.918532 L119.6,105.518532 L114.8,104.118532 L130.4,83.8185321 Z M131.6,89.2185321 L131.6,89.2185321 L125.4,97.6185321 L132.1,99.5185321 L131.6,89.2185321 Z" id="Shape"></path>
                            <path d="M152.6,89.5185321 L157.7,90.3185321 C162.8,91.1185321 168.8,91.7185321 167.9,98.4185321 C167.4,101.118532 165.4,103.218532 162.2,103.218532 L162.2,103.218532 C163.5,103.518532 164,105.018532 164.3,106.118532 L166.7,116.018532 L161.4,115.218532 L159.6,107.418532 C159.1,105.518532 158.6,104.918532 156.7,104.518532 L155.1,104.318532 L153.7,114.218532 L148.9,113.618532 L152.6,89.5185321 Z M155.8,100.418532 L157.4,100.618532 C159.8,100.918532 162.5,101.118532 162.8,98.1185321 C163.3,95.2185321 160.6,94.6185321 158.2,94.3185321 L156.6,94.1185321 L155.8,100.418532 Z" id="Shape"></path>
                            <path d="M178.5,92.7185321 L185,92.9185321 C192.3,93.1185321 198.7,95.6185321 198.5,105.018532 C198.3,114.418532 191.8,116.818532 184.5,116.818532 L178,116.618532 L178.5,92.7185321 Z M183,112.918532 L185.7,112.918532 C189.7,112.918532 193.7,110.018532 193.7,104.818532 C193.9,99.5185321 190,96.5185321 186.1,96.5185321 L183.4,96.5185321 L183,112.918532 Z" id="Shape"></path>
                            <path d="M221.2,95.3185321 C219.6,94.8185321 217.9,94.7185321 216.3,94.8185321 C214.7,95.0185321 212.6,95.9185321 213,98.5185321 C213.5,102.618532 223.7,99.6185321 224.6,107.618532 C225.2,112.918532 221.3,115.218532 216.5,115.718532 C214,116.018532 212.7,115.918532 210.3,115.518532 L210.3,111.218532 C212.1,111.818532 214,112.318532 215.9,112.018532 C217.7,111.818532 220,110.618532 219.7,108.518532 C219.2,104.018532 209,107.118532 208.1,99.3185321 C207.5,94.0185321 211.3,91.7185321 215.6,91.2185321 C217.7,90.9185321 219.6,91.0185321 221.3,91.4185321 L221.2,95.3185321 Z" id="Path"></path>
                            <path d="M263.1,80.0185321 L270.7,76.8185321 C273.6,75.5185321 278.2,74.6185321 280.1,79.5185321 C281.2,82.0185321 280.3,84.8185321 277.9,86.2185321 L277.9,86.2185321 C281.1,85.2185321 284,86.4185321 285.1,89.1185321 C287.5,94.7185321 282.9,97.5185321 280,98.7185321 L272.4,101.918532 L263.1,80.0185321 Z M271.2,87.0185321 L273,86.2185321 C274.9,85.4185321 277,84.0185321 276,81.7185321 C274.9,79.2185321 272.7,79.9185321 270.6,80.7185321 L268.8,81.5185321 L271.2,87.0185321 Z M275.2,96.5185321 L277.3,95.5185321 C279.4,94.7185321 281.6,93.1185321 280.5,90.6185321 C279.2,87.7185321 276.8,88.2185321 274.6,89.2185321 L272.5,90.2185321 L275.2,96.5185321 Z" id="Shape"></path>
                            <path d="M295.6,63.6185321 C302,59.8185321 308.2,61.8185321 312,68.1185321 C315.7,74.3185321 314.9,80.8185321 308.3,84.8185321 C301.8,88.8185321 295.7,86.4185321 291.9,80.2185321 C288.1,73.8185321 289,67.4185321 295.6,63.6185321 Z M306.4,81.4185321 C310.5,78.9185321 309.9,74.2185321 307.7,70.6185321 C305.5,66.9185321 301.6,64.4185321 297.5,66.8185321 C293.4,69.2185321 294,74.0185321 296.2,77.5185321 C298.4,81.1185321 302.3,84.0185321 306.4,81.4185321 Z" id="Shape"></path>
                            <path d="M318.2,48.3185321 L322.3,44.8185321 L344.6,57.2185321 L340.5,60.5185321 L335.4,57.6185321 L327.9,63.7185321 L329.8,69.3185321 L326,72.5185321 L318.2,48.3185321 Z M323.3,50.4185321 L323.3,50.4185321 L326.8,60.3185321 L332.2,55.8185321 L323.3,50.4185321 Z" id="Shape"></path>
                            <path d="M335.4,33.2185321 L338.9,29.4185321 C342.4,25.6185321 346.4,21.0185321 351.3,25.6185321 C353.4,27.5185321 353.8,30.5185321 352.1,32.9185321 L352.1,32.9185321 C353.1,31.9185321 354.5,32.3185321 355.6,32.7185321 L365,36.2185321 L361.3,40.2185321 L353.8,37.3185321 C352,36.7185321 351.1,36.7185321 349.8,38.1185321 L348.8,39.2185321 L356.1,45.9185321 L352.9,49.4185321 L335.4,33.2185321 Z M346.1,36.5185321 L347.2,35.4185321 C348.8,33.6185321 350.4,31.4185321 348.2,29.5185321 C346.1,27.6185321 344.1,29.3185321 342.5,31.1185321 L341.4,32.2185321 L346.1,36.5185321 Z" id="Shape"></path>
                            <path d="M353.5,12.5185321 L357.2,7.11853207 C361.3,1.01853207 367.1,-2.78146793 374.9,2.51853207 C382.7,7.91853207 381.1,14.6185321 377,20.7185321 L373.3,26.1185321 L353.5,12.5185321 Z M372.6,20.0185321 L374,17.8185321 C376.2,14.5185321 376.1,9.71853207 371.8,6.71853207 C367.5,3.71853207 362.9,5.31853207 360.7,8.61853207 L359.1,10.8185321 L372.6,20.0185321 Z" id="Shape"></path>
                        </g>
                        <g transform="translate(0.000000, -0.000000)">
                            <path d="M4.81414836,216.2 C4.21414836,217.6 3.71414836,219.4 3.71414836,221 C3.71414836,222.6 4.31414836,224.8 6.91414836,224.8 C11.0141484,225 9.61414836,214.4 17.6141484,214.6 C22.9141484,214.8 24.8141484,218.9 24.6141484,223.7 C24.6141484,226.2 24.1141484,227.5 23.5141484,229.8 L19.2141484,229.2 C20.2141484,227.6 20.8141484,225.7 20.8141484,223.8 C20.8141484,222 20.0141484,219.5 17.8141484,219.5 C13.2141484,219.3 14.8141484,229.9 7.01414836,229.7 C1.71414836,229.5 -0.185851644,225.4 0.0141483557,221.1 C0.0141483557,219 0.314148356,217.1 1.01414836,215.4 L4.81414836,216.2 Z" id="Path"></path>
                            <path d="M1.61414836,201.2 L2.41414836,196.4 L15.9141484,198.6 C19.9141484,199.2 22.7141484,198.4 23.4141484,194.8 C24.1141484,191.2 21.6141484,189.5 17.5141484,188.9 L4.01414836,186.7 L4.81414836,181.9 L19.8141484,184.3 C26.2141484,185.3 28.1141484,189.4 27.1141484,195.3 C26.1141484,201.4 23.0141484,204.5 16.6141484,203.4 L1.61414836,201.2 Z" id="Path"></path>
                            <path d="M15.9141484,157.1 C14.8141484,158.4 14.0141484,159.8 13.5141484,161.4 C13.0141484,163 13.0141484,165.2 15.6141484,166 C19.6141484,167.3 21.0141484,156.8 28.7141484,159 C33.6141484,160.6 34.4141484,165.1 33.0141484,169.7 C32.2141484,172.2 31.6141484,173.2 30.3141484,175.3 L26.3141484,173.5 C27.6141484,172.2 28.7141484,170.6 29.3141484,168.7 C29.8141484,166.9 29.6141484,164.4 27.5141484,163.8 C23.2141484,162.5 21.9141484,173 14.3141484,170.6 C9.21414836,169 8.61414836,164.5 9.81414836,160.6 C10.4141484,158.7 11.2141484,156.9 12.3141484,155.3 L15.9141484,157.1 Z" id="Path"></path>
                            <polygon id="Path" points="22.1141484 139.3 19.4141484 145.5 15.9141484 143.9 23.4141484 127 26.9141484 128.6 24.2141484 134.8 42.5141484 142.9 40.6141484 147.2"></polygon>
                            <path d="M31.7141484,112.5 L34.6141484,107.9 L59.9141484,112.2 L57.2141484,116.7 L51.5141484,115.6 L46.6141484,123.9 L50.3141484,128.5 L47.4141484,132.8 L31.7141484,112.5 Z M37.1141484,112.7 L37.1141484,112.7 L43.6141484,120.8 L47.3141484,114.9 L37.1141484,112.7 Z" id="Shape"></path>
                            <polygon id="Path" points="46.4141484 90.6 49.3141484 86.8 68.1141484 101.4 65.2141484 105.2"></polygon>
                            <polygon id="Path" points="58.1141484 75.9 62.2141484 71.8 81.3141484 77.7 81.3141484 77.7 68.6141484 65.3 71.8141484 62 88.8141484 78.7 84.8141484 82.8 65.7141484 76.9 65.7141484 76.9 78.4141484 89.3 75.2141484 92.6"></polygon>
                            <path d="M88.4141484,48 L92.7141484,44.8 L114.514148,58.2 L110.214148,61.4 L105.314148,58.2 L97.7141484,64.1 L99.3141484,69.7 L95.3141484,72.7 L88.4141484,48 Z M93.3141484,50.3 L93.3141484,50.3 L96.5141484,60.3 L102.114148,56.2 L93.3141484,50.3 Z" id="Shape"></path>
                            <path d="M110.714148,32.6 L118.014148,28.6 C120.714148,27.2 125.214148,25.6 127.714148,30.2 C129.114148,32.7 128.314148,35.3 126.114148,37.2 L126.114148,37.2 C129.114148,35.9 132.214148,36.7 133.614148,39.3 C136.514148,44.6 132.314148,47.9 129.614148,49.5 L122.314148,53.5 L110.714148,32.6 Z M119.614148,38.8 L121.414148,37.8 C123.214148,36.8 125.114148,35.3 123.914148,33 C122.614148,30.6 120.414148,31.6 118.514148,32.7 L116.914148,33.7 L119.614148,38.8 Z M124.714148,47.9 L126.614148,46.8 C128.514148,45.7 130.614148,43.9 129.314148,41.5 C127.714148,38.8 125.314148,39.6 123.214148,40.7 L121.314148,41.8 L124.714148,47.9 Z" id="Shape"></path>
                            <polygon id="Path" points="136.814148 19.2 141.314148 17.3 150.514148 39.3 146.014148 41.2"></polygon>
                            <polygon id="Path" points="154.014148 12.5 158.614148 11.1 164.714148 30.2 173.614148 27.3 174.714148 31 161.314148 35.3"></polygon>
                            <polygon id="Path" points="178.414148 5.7 183.014148 4.7 187.914148 27.9 183.314148 28.9"></polygon>
                            <polygon id="Path" points="201.314148 5.5 194.514148 6.3 194.014148 2.6 212.314148 0.5 212.814148 4.2 206.014148 5 208.214148 24.9 203.414148 25.4"></polygon>
                            <polygon id="Path" points="231.914148 14.6 223.614148 1.42108547e-14 229.214148 0.2 234.614148 10.4 240.714148 0.5 245.814148 0.7 236.914148 14.9 236.614148 24.3 231.814148 24.1"></polygon>
                            <path d="M296.414148,10.6 L301.514148,12.4 L302.914148,38 L297.814148,36.4 L297.514148,30.5 L288.314148,27.5 L284.614148,32.1 L279.814148,30.5 L296.414148,10.6 Z M297.314148,15.9 L297.314148,15.9 L290.914148,24.2 L297.614148,26.4 L297.314148,15.9 Z" id="Shape"></path>
                            <path d="M326.114148,48.4 C324.314148,48.1 322.414148,47.4 320.814148,46.6 C313.814148,43.3 310.814148,37.4 314.314148,30.2 C317.814148,22.9 324.314148,21 331.714148,24.5 C333.114148,25.1 334.914148,26.4 336.214148,27.7 L334.114148,31.2 C333.014148,29.4 331.614148,28.5 330.014148,27.9 C325.514148,25.8 321.214148,27.7 319.014148,32.2 C316.914148,36.5 318.014148,41.1 322.514148,43.3 C324.314148,44.1 326.314148,44.7 327.614148,44.7 L326.114148,48.4 Z" id="Path"></path>
                            <path d="M348.614148,62.5 C346.814148,61.9 345.114148,61.1 343.714148,60.1 C337.214148,55.8 334.914148,49.7 339.214148,42.9 C343.714148,36.1 350.314148,34.9 357.214148,39.4 C358.514148,40.2 360.114148,41.6 361.214148,43.2 L358.714148,46.4 C357.714148,44.5 356.514148,43.4 355.014148,42.6 C350.914148,39.9 346.214148,41.3 343.514148,45.5 C340.814148,49.5 341.314148,54.3 345.614148,57.1 C347.214148,58.1 349.314148,59 350.514148,59.2 L348.614148,62.5 Z" id="Path"></path>
                            <path d="M379.514148,57.1 C385.114148,62 384.914148,68.6 380.114148,74 C375.314148,79.4 368.814148,80.5 363.114148,75.6 C357.414148,70.5 357.714148,64 362.614148,58.6 C367.514148,53.1 373.914148,52 379.514148,57.1 Z M365.614148,72.7 C369.314148,75.9 373.614148,73.8 376.414148,70.6 C379.214148,67.4 380.514148,63 377.014148,59.8 C373.514148,56.6 369.214148,58.5 366.314148,61.7 C363.614148,65.1 362.014148,69.5 365.614148,72.7 Z" id="Shape"></path>
                            <path d="M397.514148,75.1 L400.514148,78.8 L389.814148,87.6 C386.614148,90.1 385.514148,92.9 387.714148,95.7 C390.114148,98.6 393.014148,97.8 396.014148,95.2 L406.714148,86.4 L409.714148,90.1 L397.914148,99.8 C393.014148,103.9 388.714148,102.8 384.714148,98 C380.914148,93.2 380.614148,88.8 385.514148,84.8 L397.514148,75.1 Z" id="Path"></path>
                            <polygon id="Path" points="418.314148 101.9 421.314148 107 410.814148 124 410.814148 124 426.114148 114.8 428.514148 118.8 408.114148 131.1 405.114148 126.2 415.614148 109.2 415.614148 109.2 400.314148 118.4 397.914148 114.4"></polygon>
                            <polygon id="Path" points="433.314148 137.2 430.614148 131 434.114148 129.6 441.414148 146.6 437.914148 148 435.214148 141.8 416.714148 149.8 414.814148 145.3"></polygon>
                            <polygon id="Path" points="445.114148 157.3 446.514148 161.9 423.714148 169.1 422.314148 164.5"></polygon>
                            <polygon id="Path" points="450.314148 175.1 451.414148 180.8 435.614148 193.1 435.614148 193.1 453.114148 189.8 454.114148 194.3 430.714148 198.9 429.614148 193.2 445.414148 180.8 445.414148 180.8 427.914148 184.1 426.914148 179.6"></polygon>
                            <path d="M451.814148,227.8 C452.614148,225.9 452.914148,223.5 452.814148,221.6 C452.614148,216 448.714148,213.2 443.914148,213.3 C439.114148,213.5 435.514148,216.6 435.814148,221.7 C435.814148,223 436.014148,224.1 436.314148,224.9 L442.514148,224.6 L442.314148,219.5 L446.114148,219.3 L446.414148,228.9 L433.514148,229.4 C432.714148,226.9 432.114148,224.3 431.914148,221.8 C431.614148,214.2 435.214148,208.6 443.214148,208.3 C451.314148,208 456.114148,212.8 456.414148,220.9 C456.614148,223.6 456.214148,225.8 455.814148,227.9 L451.814148,227.9 L451.814148,227.8 Z" id="Path"></path>
                        </g>
                    </g>
                </g>
                <g transform="translate(113.500000, 95.700000)">
                    <g transform="translate(0.000000, 172.200000)" fill="#000000">
                        <path d="M44.1,1.7 L47.6,1.7 L47.6,21.9 L43.9,21.9 C42.1,12.5 34,3.4 24.2,3.4 C18,3.4 9.1,7.1 9.1,14.5 C9.1,21.2 13.9,23.1 19.5,24.4 C25.4,25.7 34.9,27.9 40.2,30.3 C47,33.3 52.6,39.4 52.6,52.6 C52.6,66 44.5,79.7 25.8,79.7 C19.9,79.7 14.8,77.9 10,74.3 L4.1,78.6 L-2.84217094e-14,78.6 L-2.84217094e-14,56.5 L4.1,56.5 C7.1,67 14.8,76.2 26.2,76.2 C38.8,76.2 44.4,68.1 44.4,60.9 C44.4,51 33.4,50.2 22.4,47.5 C11.4,44.6 0.3,40 0.3,22.8 C0.3,9.7 11.3,5.68434189e-14 24.2,5.68434189e-14 C29.6,5.68434189e-14 34.9,2.2 39.6,5.1 L44.1,1.7 Z" id="Path"></path>
                        <path d="M57.2,77.8 L57.2,74.5 C59.9,74.5 65,74.7 66.3,71.2 L93.2,0 L97.7,0 L126,74.5 L132.8,74.5 L132.8,78 L96.7,78 L96.7,74.5 L105.5,74.5 L99.3,56.7 L75.9,56.7 L72.9,65 C71.6,68.3 70.7,71.7 70.7,72.8 C70.7,75.7 79.3,74.7 81.1,74.7 L81.1,78.2 L57.4,78.2 L57.4,77.8 L57.2,77.8 Z M77.3,53.1 L97.8,53.1 L87.6,25.2 L77.3,53.1 Z" id="Shape"></path>
                        <path d="M184.1,1.7 L187.6,1.7 L187.6,21.9 L183.9,21.9 C182.1,12.5 174,3.4 164.2,3.4 C158,3.4 149.1,7.1 149.1,14.5 C149.1,21.2 153.9,23.1 159.5,24.4 C165.4,25.7 174.9,27.9 180.2,30.3 C187,33.3 192.6,39.4 192.6,52.6 C192.6,66 184.5,79.7 165.8,79.7 C159.9,79.7 154.8,77.9 150,74.3 L144.1,78.6 L140,78.6 L140,56.5 L144.1,56.5 C147.1,67 154.8,76.2 166.2,76.2 C178.8,76.2 184.4,68.1 184.4,60.9 C184.4,51 173.4,50.2 162.4,47.5 C151.4,44.6 140.3,40 140.3,22.8 C140.3,9.7 151.3,5.68434189e-14 164.2,5.68434189e-14 C169.6,5.68434189e-14 174.9,2.2 179.6,5.1 L184.1,1.7 Z" id="Path"></path>
                        <path d="M205.1,77.8 L205.1,74.5 L212.9,74.5 L212.9,5.2 L204.8,5.2 L204.8,1.9 L247.2,1.9 C257.1,1.9 270.6,6.7 271.4,18.6 C272,27.2 266.3,34.8 249.1,38.2 L249.1,38.4 C260.4,38.7 275.4,44.1 275.4,57.8 C275.4,66.1 269.8,71.7 263.1,74.8 C257.4,77.7 249.9,77.8 243.7,77.8 L205.1,77.8 L205.1,77.8 Z M232,36.4 L236.9,36.4 C249,36.4 251.5,35 251.5,19.7 C251.5,6.2 251,5.1 239.4,5.1 L231.9,5.1 L231.9,36.4 L232,36.4 Z M245.6,74.5 C255.8,74.5 254.2,65.4 254.2,57.5 C254.2,43.6 253.2,40 237.2,40 L232.1,40 L232.1,74.6 L245.6,74.6 L245.6,74.5 Z" id="Shape"></path>
                    </g>
                    <g transform="translate(0.400000, 0.000000)" fill="#C8102E">
                        <rect id="Rectangle" x="97.1" y="1.9" width="31.7" height="152.4"></rect>
                        <rect id="Rectangle" x="48.5" y="52.7" width="31.7" height="101.6"></rect>
                        <rect id="Rectangle" x="-2.84217094e-14" y="103.5" width="31.7" height="50.8"></rect>
                        <path d="M204.9,15.8 C204.1,15.5 203.3,15 202.7,14.7 L162.7,74.1 L149.5,0.3 C148.2,0.1 147.1,0 145.8,0 L145.8,154.3 L291,154.3 C291,153 291,151.9 291,150.6 L225.6,137.4 L281.2,99.8 C280.9,99 280.6,98.2 280.2,97.3 L211.7,110.4 L251.2,50.8 C250.6,50.2 250.1,49.5 249.4,48.9 L190.3,87.9 L204.9,15.8 Z" id="Path"></path>
                    </g>
                </g>
            </g>
            <g id="Group" transform="translate(434.700000, 426.700000)" fill="#000000">
                <polygon id="Path" points="9.2 0.1 9.2 1.4 5.4 1.4 5.4 11.3 3.8 11.3 3.8 1.3 0 1.3 0 -5.68434189e-14 9.2 -5.68434189e-14"></polygon>
                <path d="M11.5,0.1 L13.7,0.1 L16.9,9.5 L20.1,0.1 L22.3,0.1 L22.3,11.2 L20.7,11.2 L20.7,4.7 C20.7,4.5 20.7,4.1 20.7,3.6 C20.7,3.1 20.7,2.5 20.7,1.8 L17.5,11.2 L16.1,11.2 L12.9,1.8 L12.9,2.1 C12.9,2.4 12.9,2.7 12.9,3.4 C12.9,4.1 12.9,4.4 12.9,4.7 L12.9,11.2 L11.5,11.2 L11.5,0.1 L11.5,0.1 Z" id="Path"></path>
            </g>
        </g>
    </g>
</svg>