<?xml version="1.0" standalone="no"?>
<!DOCTYPE svg PUBLIC "-//W3C//DTD SVG 20010904//EN"
 "http://www.w3.org/TR/2001/REC-SVG-20010904/DTD/svg10.dtd">
<svg version="1.0" xmlns="http://www.w3.org/2000/svg"
 width="512.000000pt" height="512.000000pt" viewBox="0 0 512.000000 512.000000"
 preserveAspectRatio="xMidYMid meet">
<metadata>
Created by potrace 1.11, written by Peter Selinger 2001-2013
</metadata>
<g transform="translate(0.000000,512.000000) scale(0.100000,-0.100000)"
fill="#000000" stroke="none">
<path d="M1160 5110 c-292 -8 -344 -17 -507 -95 -224 -106 -392 -274 -498
-496 -54 -115 -82 -214 -95 -339 -6 -59 -10 -693 -10 -1661 0 -1352 2 -1578
15 -1653 37 -211 138 -406 288 -554 99 -98 164 -145 282 -202 113 -55 211 -84
335 -100 96 -11 1464 -12 2560 0 680 7 697 7 770 29 380 113 638 379 743 766
l21 80 3 1639 c3 1433 2 1650 -12 1727 -36 211 -126 387 -280 547 -112 118
-251 208 -400 259 -176 60 -73 57 -1580 58 -759 1 -1495 -1 -1635 -5z m2200
-2550 l0 -850 -800 0 -800 0 0 850 0 850 800 0 800 0 0 -850z"/>
</g>
</svg>
