<?xml version="1.0" encoding="UTF-8"?>
<svg width="512px" height="110px" viewBox="0 0 512 110" version="1.1" xmlns="http://www.w3.org/2000/svg" xmlns:xlink="http://www.w3.org/1999/xlink">
    <title>esg_light</title>
    <defs>
        <linearGradient x1="37.8415946%" y1="90.0114109%" x2="88.2605801%" y2="36.8738541%" id="linearGradient-1">
            <stop stop-color="#162F92" offset="0%"></stop>
            <stop stop-color="#0F4CB0" offset="34%"></stop>
            <stop stop-color="#0A61C6" offset="51%"></stop>
            <stop stop-color="#0B5DC1" offset="61%"></stop>
            <stop stop-color="#0F50B4" offset="73%"></stop>
            <stop stop-color="#143B9E" offset="84%"></stop>
            <stop stop-color="#173193" offset="100%"></stop>
        </linearGradient>
        <linearGradient x1="88.2172516%" y1="-6.57598337%" x2="-5.95107655%" y2="77.0195807%" id="linearGradient-2">
            <stop stop-color="#305BA6" offset="17%"></stop>
            <stop stop-color="#5FBAA8" offset="52%"></stop>
            <stop stop-color="#2E58A6" offset="93%"></stop>
        </linearGradient>
    </defs>
    <g id="Branding" stroke="none" stroke-width="1" fill="none" fill-rule="evenodd">
        <g transform="translate(-32.000000, -475.000000)" fill-rule="nonzero" id="esg_light">
            <g transform="translate(32.805990, 475.743236)">
                <path d="M157.9509,86.2920237 C170.0282,86.2920237 179.48,80.0958437 183.47076,70.4340037 L172.44366,70.4340037 C169.39808,74.9498637 164.67218,77.0502637 157.9509,77.0502637 C148.91918,77.0502637 141.98786,71.9042837 140.51758,62.6625237 L185.67618,62.6625237 L185.67618,58.9868237 C185.67618,43.2338237 174.33402,31.6816237 157.9509,31.6816237 C141.56778,31.6816237 130.01558,43.2338237 130.01558,58.9868237 C130.01558,74.7398237 141.56778,86.2920237 157.9509,86.2920237 Z M175.17418,53.7358237 L140.83264,53.7358237 C142.82802,45.5442637 149.33926,40.9233837 157.9509,40.9233837 C166.3525,40.9233837 173.1788,45.4392437 175.17418,53.7358237 Z M213.50648,86.2920237 C226.52896,86.2920237 235.03558,79.4657237 235.03558,68.9637237 C235.03558,59.1762927 227.534949,56.3180165 219.839161,54.9687037 L219.261725,54.8702499 C218.587889,54.7584903 217.913958,54.6572463 217.244825,54.5628867 L216.672571,54.4836083 C216.482288,54.4576877 216.29251,54.4322445 216.103352,54.4071938 L215.537854,54.333135 C215.35005,54.3087848 215.162981,54.2847426 214.97676,54.2609237 C208.57054,53.4207637 203.1095,52.8956637 203.1095,47.9597237 C203.1095,43.8639437 206.89022,40.7133437 213.50648,40.7133437 C219.80768,40.7133437 223.48338,43.6539037 223.79844,47.6446637 L233.67032,47.6446637 C233.46028,38.7179637 225.79382,31.6816237 213.40146,31.6816237 C201.0091,31.6816237 193.02758,38.6129437 193.02758,48.7998837 C193.02758,60.6671437 203.94966,62.3474637 212.98138,63.5026837 C219.49262,64.3428437 224.95366,64.9729637 224.95366,69.9089037 C224.95366,74.0046837 221.06792,77.2603037 213.50648,77.2603037 C206.2601,77.2603037 202.26934,74.2147237 202.0593,69.9089037 L191.97738,69.9089037 C192.29244,79.3607037 200.484,86.2920237 213.50648,86.2920237 Z M269.48214,108.451244 C284.81506,108.451244 296.99738,100.679764 296.99738,80.7259637 L296.99738,59.4069037 C296.99738,42.7087237 285.65522,31.6816237 269.2721,31.6816237 C252.88898,31.6816237 241.33678,43.2338237 241.33678,58.9868237 C241.33678,76.6301837 254.14922,85.8719437 267.59178,85.8719437 C276.30844,85.8719437 283.55482,81.8811837 287.1255,75.1599037 L287.1255,81.1460437 C287.1255,94.6936237 280.08916,99.7345837 269.48214,99.7345837 C261.9207,99.7345837 255.82954,97.1090837 253.41408,91.1229437 L243.22714,91.1229437 C246.79782,103.095224 256.77472,108.451244 269.48214,108.451244 Z M269.2721,76.5251637 C258.56006,76.5251637 251.4187,69.4888237 251.4187,58.9868237 C251.4187,48.4848237 258.56006,40.9233837 269.2721,40.9233837 C279.98414,40.9233837 287.1255,48.4848237 287.1255,58.9868237 C287.1255,69.4888237 279.98414,76.5251637 269.2721,76.5251637 Z M315.16584,49.4300037 C319.1566,49.4300037 322.09716,46.4894437 322.09716,42.4986837 C322.09716,38.5079237 319.1566,35.5673637 315.16584,35.5673637 C311.17508,35.5673637 308.23452,38.5079237 308.23452,42.4986837 C308.23452,46.4894437 311.17508,49.4300037 315.16584,49.4300037 Z M315.16584,86.2920237 C319.1566,86.2920237 322.09716,83.3514637 322.09716,79.3607037 C322.09716,75.3699437 319.1566,72.4293837 315.16584,72.4293837 C311.17508,72.4293837 308.23452,75.3699437 308.23452,79.3607037 C308.23452,83.3514637 311.17508,86.2920237 315.16584,86.2920237 Z M359.16922,86.2920237 C375.55234,86.2920237 387.10454,74.7398237 387.10454,58.9868237 C387.10454,43.2338237 375.55234,31.6816237 359.16922,31.6816237 C342.7861,31.6816237 331.2339,43.2338237 331.2339,58.9868237 C331.2339,74.7398237 342.7861,86.2920237 359.16922,86.2920237 Z M359.16922,77.0502637 C348.45718,77.0502637 341.31582,69.4888237 341.31582,58.9868237 C341.31582,48.4848237 348.45718,40.9233837 359.16922,40.9233837 C369.88126,40.9233837 377.02262,48.4848237 377.02262,58.9868237 C377.02262,69.4888237 369.88126,77.0502637 359.16922,77.0502637 Z M405.273,84.9267637 L405.273,57.9366237 C405.273,46.6994837 411.46918,40.9233837 420.92098,40.9233837 C430.37278,40.9233837 436.56896,46.6994837 436.56896,57.9366237 L436.56896,84.9267637 L446.54586,84.9267637 L446.54586,57.9366237 C446.54586,40.5033037 436.2539,31.6816237 420.92098,31.6816237 C405.58806,31.6816237 395.2961,40.6083237 395.2961,57.9366237 L395.2961,84.9267637 L405.273,84.9267637 Z M482.67274,86.2920237 C494.75004,86.2920237 504.20184,80.0958437 508.1926,70.4340037 L497.1655,70.4340037 C494.11992,74.9498637 489.39402,77.0502637 482.67274,77.0502637 C473.64102,77.0502637 466.7097,71.9042837 465.23942,62.6625237 L510.39802,62.6625237 L510.39802,58.9868237 C510.39802,43.2338237 499.05586,31.6816237 482.67274,31.6816237 C466.28962,31.6816237 454.73742,43.2338237 454.73742,58.9868237 C454.73742,74.7398237 466.28962,86.2920237 482.67274,86.2920237 Z M499.89602,53.7358237 L465.55448,53.7358237 C467.54986,45.5442637 474.0611,40.9233837 482.67274,40.9233837 C491.07434,40.9233837 497.90064,45.4392437 499.89602,53.7358237 Z" id="esg:one" fill="#FFFFFF"></path>
                <g id="icon">
                    <path d="M2.14798906e-14,72.6168597 L2.14798906e-14,86.9478917 C2.14798906e-14,99.1253257 9.87176077,108.997086 22.0491948,108.997086 L84.9508052,108.997086 C97.1282392,108.997086 107,99.1253257 107,86.9478917 L107,22.0057388 C107,9.82483402 97.1354888,0.476126572 84.9508052,0.476126572 L70.4950735,0.377878231 L70.4950735,72.6168597 L2.14798906e-14,72.6168597 Z" id="Path" fill="url(#linearGradient-1)"></path>
                    <path d="M107,36.3764479 L107,22.045416 C106.997913,9.86945772 97.1267637,0 84.9508052,0 L22.0491948,0 C9.87176077,0 2.14798906e-14,9.87176077 2.14798906e-14,22.0491948 L2.14798906e-14,86.9875689 C2.14798906e-14,92.8353789 2.3230335,98.4436779 6.45805964,102.578704 C10.5930858,106.71373 16.2013848,109.036764 22.0491948,109.036764 L36.5729446,108.98575 L36.5105947,36.3764479 L107,36.3764479 Z" id="Path" fill="url(#linearGradient-2)"></path>
                </g>
            </g>
        </g>
    </g>
</svg>