<?xml version="1.0" encoding="UTF-8"?>
<svg width="82px" height="81px" viewBox="0 0 82 81" version="1.1" xmlns="http://www.w3.org/2000/svg" xmlns:xlink="http://www.w3.org/1999/xlink">
    <title>bullseye</title>
    <defs>
        <filter id="filter-1">
            <feColorMatrix in="SourceGraphic" type="matrix" values="0 0 0 0 0.200000 0 0 0 0 0.709804 0 0 0 0 0.701961 0 0 0 1.000000 0"></feColorMatrix>
        </filter>
    </defs>
    <g id="ESG-Homepage" stroke="none" stroke-width="1" fill="none" fill-rule="evenodd">
        <g id="ESG-HOMEPAGE" transform="translate(-536.000000, -3467.000000)">
            <g id="Benefit" transform="translate(176.000000, 2993.358586)">
                <g id="Point-6" transform="translate(286.892025, 432.284045)">
                    <g id="bullseye" transform="translate(73.607975, 41.357369)" filter="url(#filter-1)">
                        <g>
                            <path d="M63.1012148,42.5096543 L78.6269531,42.5096543 L78.6269531,38.4903457 L63.1012148,38.4903457 L63.1012148,42.5096543 Z M44.8827012,72.5763164 L44.8827012,68.5154004 C51.1250801,67.5440332 56.900127,64.4880234 61.2399551,59.8346367 C61.6868789,59.3554395 61.6607754,58.6046074 61.1814199,58.1576836 C60.7023809,57.7106016 59.9515488,57.7368633 59.5044668,58.2160605 C55.6121953,62.3893008 50.4609434,65.1607031 44.8827012,66.1110293 L44.8827012,61.914375 C44.8827012,61.2589395 44.3514551,60.7278516 43.6961777,60.7278516 L37.3038223,60.7278516 C36.6485449,60.7278516 36.1172988,61.2589395 36.1172988,61.914375 L36.1172988,66.1121367 C25.208877,64.271918 16.7277656,55.7909648 14.8875469,44.8823848 L19.0853086,44.8823848 C19.7405859,44.8823848 20.271832,44.3512969 20.271832,43.6958613 L20.271832,37.3035059 C20.271832,36.6480703 19.7405859,36.1169824 19.0853086,36.1169824 L14.8875469,36.1169824 C16.7277656,25.2085605 25.2087187,16.7274492 36.1172988,14.8872305 L36.1172988,19.0849922 C36.1172988,19.7404277 36.6485449,20.2715156 37.3038223,20.2715156 L43.6961777,20.2715156 C44.3514551,20.2715156 44.8827012,19.7404277 44.8827012,19.0849922 L44.8827012,14.8872305 C55.791123,16.7277656 64.2722344,25.2087187 66.1124531,36.1172988 L61.9146914,36.1172988 C61.2594141,36.1172988 60.728168,36.6483867 60.728168,37.3038223 L60.728168,43.6961777 C60.728168,44.3516133 61.2594141,44.8827012 61.9146914,44.8827012 L66.1129277,44.8827012 C65.5680762,48.1056152 64.4304375,51.1568789 62.7213691,53.9700469 C62.3810742,54.5300859 62.5593691,55.259877 63.1194082,55.6003301 C63.3119414,55.7172422 63.5244082,55.7729297 63.7343438,55.7729297 C64.1349141,55.7729297 64.5263086,55.5699551 64.7495332,55.2024492 C66.685623,52.0156055 67.9485586,48.5484258 68.5152422,44.8828594 L72.5764746,44.8828594 C70.633582,59.2676367 59.2676367,70.633582 44.8827012,72.5763164 L44.8827012,72.5763164 Z M38.4903457,78.6269531 L42.5096543,78.6269531 L42.5096543,63.1008984 L38.4903457,63.1008984 L38.4903457,78.6269531 Z M8.42368359,44.8827012 L12.4844414,44.8827012 C13.4040762,50.7775078 16.207752,56.306707 20.4506016,60.5495566 C24.6934512,64.7924062 30.2226504,67.5959238 36.117457,68.5157168 L36.117457,72.5764746 C21.7323633,70.633582 10.366418,59.2676367 8.42368359,44.8827012 L8.42368359,44.8827012 Z M2.37304688,42.5096543 L17.8987852,42.5096543 L17.8987852,38.4903457 L2.37304688,38.4903457 L2.37304688,42.5096543 Z M38.4903457,17.8989434 L42.5096543,17.8989434 L42.5096543,2.37304688 L38.4903457,2.37304688 L38.4903457,17.8989434 Z M72.5763164,36.1172988 L68.5155586,36.1172988 C67.5959238,30.2224922 64.792248,24.693293 60.5493984,20.4504434 C56.3065488,16.2075937 50.7773496,13.4040762 44.882543,12.4842832 L44.882543,8.42368359 C59.2676367,10.366418 70.633582,21.7323633 72.5763164,36.1172988 L72.5763164,36.1172988 Z M79.8134766,36.1172988 L74.9686641,36.1172988 C72.9955547,20.4200684 60.5800898,8.00444531 44.8827012,6.03133594 L44.8827012,1.18652344 C44.8827012,0.531087891 44.3514551,0 43.6961777,0 L37.3038223,0 C36.6485449,0 36.1172988,0.531087891 36.1172988,1.18652344 L36.1172988,6.03007031 C30.2965312,6.76381641 24.7434434,8.96995898 19.9954512,12.4456816 C19.4667363,12.8326465 19.3518809,13.575252 19.7388457,14.1038086 C19.9712461,14.4214805 20.331791,14.5896504 20.6972402,14.5896504 C20.9405566,14.5896504 21.1859297,14.5149785 21.3971309,14.3604141 C25.7390156,11.1819551 30.8038887,9.14382422 36.1172988,8.42368359 L36.1172988,12.484125 C30.2224922,13.4037598 24.693293,16.2074355 20.4504434,20.4502852 C16.2075938,24.6931348 13.4040762,30.222334 12.4842832,36.1171406 L8.42368359,36.1171406 C9.35455078,29.2709004 12.4964648,22.831084 17.3563066,17.8630312 C17.8144629,17.3945918 17.8062363,16.6434434 17.3377969,16.1852871 C16.8693574,15.7269727 16.118209,15.7355156 15.6598945,16.2037969 C10.3686328,21.6127617 6.97580859,28.6485293 6.03165234,36.1171406 L1.18652344,36.1171406 C0.531246094,36.1171406 0,36.6482285 0,37.3036641 L0,43.6960195 C0,44.3514551 0.531246094,44.882543 1.18652344,44.882543 L6.03133594,44.882543 C8.00444531,60.5797734 20.4199102,72.9955547 36.1172988,74.9685059 L36.1172988,79.8134766 C36.1172988,80.4689121 36.6485449,81 37.3038223,81 L43.6961777,81 C44.3514551,81 44.8827012,80.4689121 44.8827012,79.8134766 L44.8827012,74.9686641 C60.5800898,72.9955547 72.9955547,60.5800898 74.9686641,44.8827012 L79.8134766,44.8827012 C80.4687539,44.8827012 81,44.3516133 81,43.6961777 L81,37.3038223 C81,36.6483867 80.4687539,36.1172988 79.8134766,36.1172988 L79.8134766,36.1172988 Z" id="Fill-1" fill="#000000"></path>
                            <path d="M27.7160643,37.5316348 C27.9019529,37.5316348 28.0905311,37.4878125 28.2666111,37.3954219 L47.6048865,27.2428945 L48.427701,28.8102129 C48.6564627,29.2459043 49.27124,29.270584 49.5340154,28.854668 L52.6931736,23.8565566 C52.9561072,23.4406406 52.6702342,22.8961055 52.1785389,22.8763301 L46.2706014,22.6385508 C45.7789061,22.6187754 45.45016,23.1386309 45.6789217,23.5744805 L46.5017361,25.1417988 L27.1634607,35.2943262 C26.5833299,35.5990254 26.3597889,36.3161602 26.6644881,36.8964492 C26.8767967,37.3005 27.2892322,37.5316348 27.7160643,37.5316348" id="Fill-3" fill="#000000"></path>
                            <path d="M49.3574766,55.6140937 L52.0983457,55.6140937 L52.0983457,34.3351406 L49.3574766,34.3351406 L49.3574766,55.6140937 Z M39.1294863,55.6140938 L41.8703555,55.6140938 L41.8703555,40.408084 L39.1294863,40.408084 L39.1294863,55.6140938 Z M28.9016543,55.6140938 L31.6425234,55.6140938 L31.6425234,45.2022715 L28.9016543,45.2022715 L28.9016543,55.6140938 Z M55.6819629,55.6140938 L54.4712344,55.6140938 L54.4712344,33.1486172 C54.4712344,32.4931816 53.9401465,31.9620938 53.2847109,31.9620938 L48.1709531,31.9620938 C47.5156758,31.9620938 46.9844297,32.4931816 46.9844297,33.1486172 L46.9844297,55.6140938 L44.2435605,55.6140938 L44.2435605,39.2215605 C44.2435605,38.566125 43.7123145,38.0350371 43.0570371,38.0350371 L37.9431211,38.0350371 C37.2878438,38.0350371 36.7565977,38.566125 36.7565977,39.2215605 L36.7565977,55.6140938 L34.0157285,55.6140938 L34.0157285,44.015748 C34.0157285,43.3603125 33.4844824,42.8292246 32.8292051,42.8292246 L27.7152891,42.8292246 C27.0600117,42.8292246 26.5287656,43.3603125 26.5287656,44.015748 L26.5287656,55.6140938 L25.3181953,55.6140938 C24.662918,55.6140938 24.1316719,56.1451816 24.1316719,56.8006172 C24.1316719,57.4560527 24.662918,57.9871406 25.3181953,57.9871406 L55.6822793,57.9871406 C56.3375566,57.9871406 56.8688027,57.4560527 56.8688027,56.8006172 C56.8688027,56.1451816 56.3372402,55.6140938 55.6819629,55.6140938 L55.6819629,55.6140938 Z" id="Fill-4" fill="#000000"></path>
                        </g>
                    </g>
                </g>
            </g>
        </g>
    </g>
</svg>