<?xml version="1.0" encoding="UTF-8"?>
<svg width="94px" height="68px" viewBox="0 0 94 68" version="1.1" xmlns="http://www.w3.org/2000/svg" xmlns:xlink="http://www.w3.org/1999/xlink">
    <title>code</title>
    <defs>
        <filter id="filter-1">
            <feColorMatrix in="SourceGraphic" type="matrix" values="0 0 0 0 0.133333 0 0 0 0 0.545098 0 0 0 0 0.756863 0 0 0 1.000000 0"></feColorMatrix>
        </filter>
    </defs>
    <g id="ESG-Homepage" stroke="none" stroke-width="1" fill="none" fill-rule="evenodd">
        <g id="ESG-HOMEPAGE" transform="translate(-531.000000, -3157.000000)">
            <g id="Benefit" transform="translate(176.000000, 2993.358586)">
                <g id="Point-2" transform="translate(286.892025, 118.284045)">
                    <g id="code" transform="translate(68.107975, 45.357369)" filter="url(#filter-1)">
                        <g>
                            <path d="M87.1152344,0 L82.2938789,0 C81.53325,0 80.9169258,0.616324219 80.9169258,1.37695313 C80.9169258,2.13758203 81.53325,2.75390625 82.2938789,2.75390625 L87.1152344,2.75390625 C89.3928984,2.75390625 91.2460938,4.60710156 91.2460938,6.88476563 L91.2460938,13.21875 L2.75390625,13.21875 L2.75390625,6.88476563 C2.75390625,4.60710156 4.60691797,2.75390625 6.88476562,2.75390625 L76.2481367,2.75390625 C77.0087656,2.75390625 77.6250898,2.13758203 77.6250898,1.37695313 C77.6250898,0.616324219 77.0087656,0 76.2481367,0 L6.88476562,0 C3.08841406,0 0,3.08841406 0,6.88476563 L0,22.0644805 C0,22.8251094 0.616507812,23.4414336 1.37695312,23.4414336 C2.13739844,23.4414336 2.75390625,22.8251094 2.75390625,22.0644805 L2.75390625,15.9726563 L91.2460938,15.9726563 L91.2460938,51.4734453 C91.2460938,52.2340742 91.862418,52.8503984 92.6230469,52.8503984 C93.3836758,52.8503984 94,52.2340742 94,51.4734453 L94,6.88476562 C94,3.08841406 90.9115859,0 87.1152344,0 Z" id="Path" fill="#000000" fill-rule="nonzero"></path>
                            <path d="M92.6230469,55.9031953 C91.862418,55.9031953 91.2460938,56.5195195 91.2460938,57.2801484 L91.2460938,60.8613281 C91.2460938,63.1389922 89.3928984,64.9921875 87.1152344,64.9921875 L6.88476562,64.9921875 C4.60691797,64.9921875 2.75390625,63.1389922 2.75390625,60.8613281 L2.75390625,27.9736289 C2.75390625,27.213 2.13739844,26.5966758 1.37695312,26.5966758 C0.616507813,26.5966758 0,27.213 0,27.9736289 L0,60.8613281 C0,64.6576797 3.08841406,67.7460938 6.88476562,67.7460938 L87.1152344,67.7460938 C90.9115859,67.7460938 94,64.6576797 94,60.8613281 L94,57.2801484 C94,56.5197031 93.3836758,55.9031953 92.6230469,55.9031953 Z" id="Path" fill="#000000" fill-rule="nonzero"></path>
                            <path d="M19.9166172,29.9178867 C19.3788711,29.3803242 18.5069844,29.3803242 17.9694219,29.9178867 L9.69485156,38.192457 C9.43653516,38.4507734 9.29149609,38.8008867 9.29149609,39.1662383 C9.29149609,39.5315898 9.43653516,39.8815195 9.69485156,40.1400195 L17.86,48.305168 C18.1287812,48.5739492 18.4812812,48.7083398 18.8335977,48.7083398 C19.1859141,48.7083398 19.5384141,48.5739492 19.8071953,48.305168 C20.3449414,47.7672383 20.3449414,46.8955352 19.8071953,46.3577891 L12.6156445,39.1664219 L19.9166172,31.8654492 C20.4545469,31.3275195 20.4545469,30.4558164 19.9166172,29.9178867 L19.9166172,29.9178867 Z" id="Path" fill="#000000" fill-rule="nonzero"></path>
                            <path d="M38.43425,48.3049844 C38.7030313,48.5737656 39.0555312,48.7081563 39.4078477,48.7081563 C39.7601641,48.7081563 40.1126641,48.5737656 40.3814453,48.3049844 L48.5467773,40.1398359 C48.8049102,39.8815195 48.9499492,39.5314063 48.9499492,39.1660547 C48.9499492,38.8007031 48.8049102,38.4507734 48.5467773,38.1922734 L40.2720234,29.9177031 C39.7342773,29.3801406 38.8623906,29.3801406 38.3248281,29.9177031 C37.787082,30.4556328 37.787082,31.3273359 38.3248281,31.865082 L45.6259844,39.1660547 L38.4344336,46.3574219 C37.8965039,46.8955352 37.8965039,47.7672383 38.43425,48.3049844 L38.43425,48.3049844 Z" id="Path" fill="#000000" fill-rule="nonzero"></path>
                            <path d="M24.2325391,53.3769453 C24.7879102,53.3769453 25.3113359,53.0383984 25.520082,52.488168 L35.3045273,26.7119727 C35.5744102,26.0009141 35.2167695,25.2057695 34.5058945,24.9358867 C33.7950195,24.6658203 32.9996914,25.0236445 32.7299922,25.7345195 L22.9455469,51.511082 C22.6756641,52.221957 23.0333047,53.0171016 23.7441797,53.2869844 C23.9050078,53.3481211 24.0700586,53.3769453 24.2325391,53.3769453 L24.2325391,53.3769453 Z" id="Path" fill="#000000" fill-rule="nonzero"></path>
                            <path d="M6.05969531,8.05444141 C6.05969531,10.3321055 7.91270703,12.1853008 10.1905547,12.1853008 C12.4684023,12.1853008 14.3214141,10.3321055 14.3214141,8.05444141 C14.3214141,5.77677734 12.4684023,3.92358203 10.1905547,3.92358203 C7.91270703,3.92358203 6.05969531,5.77677734 6.05969531,8.05444141 L6.05969531,8.05444141 Z M11.5675078,8.05444141 C11.5675078,8.81378516 10.9498984,9.43139453 10.1905547,9.43139453 C9.43121094,9.43139453 8.81360156,8.81378516 8.81360156,8.05444141 C8.81360156,7.29509766 9.43121094,6.67748828 10.1905547,6.67748828 C10.9498984,6.67748828 11.5675078,7.29509766 11.5675078,8.05444141 Z" id="Shape" fill="#000000" fill-rule="nonzero"></path>
                            <path d="M16.7375078,8.05444141 C16.7375078,10.3321055 18.5905195,12.1853008 20.8683672,12.1853008 C23.1462148,12.1853008 24.9992266,10.3321055 24.9992266,8.05444141 C24.9992266,5.77677734 23.1462148,3.92358203 20.8683672,3.92358203 C18.5905195,3.92358203 16.7375078,5.77677734 16.7375078,8.05444141 L16.7375078,8.05444141 Z M22.2453203,8.05444141 C22.2453203,8.81378516 21.6277109,9.43139453 20.8683672,9.43139453 C20.1090234,9.43139453 19.4914141,8.81378516 19.4914141,8.05444141 C19.4914141,7.29509766 20.1090234,6.67748828 20.8683672,6.67748828 C21.6277109,6.67748828 22.2453203,7.29509766 22.2453203,8.05444141 Z" id="Shape" fill="#000000" fill-rule="nonzero"></path>
                            <path d="M27.4151367,8.05444141 C27.4151367,10.3321055 29.2681484,12.1853008 31.5459961,12.1853008 C33.8238438,12.1853008 35.6768555,10.3321055 35.6768555,8.05444141 C35.6768555,5.77677734 33.8238438,3.92358203 31.5459961,3.92358203 C29.2681484,3.92358203 27.4151367,5.77677734 27.4151367,8.05444141 L27.4151367,8.05444141 Z M32.9229492,8.05444141 C32.9229492,8.81378516 32.3053398,9.43139453 31.5459961,9.43139453 C30.7866523,9.43139453 30.169043,8.81378516 30.169043,8.05444141 C30.169043,7.29509766 30.7866523,6.67748828 31.5459961,6.67748828 C32.3053398,6.67748828 32.9229492,7.29509766 32.9229492,8.05444141 Z" id="Shape" fill="#000000" fill-rule="nonzero"></path>
                            <path d="M61.5957031,31.3702969 L70.2246094,31.3702969 C72.5022734,31.3702969 74.3554688,29.5171016 74.3554688,27.2394375 C74.3554688,24.9617734 72.5022734,23.1085781 70.2246094,23.1085781 L61.5957031,23.1085781 C59.3180391,23.1085781 57.4648438,24.9617734 57.4648438,27.2394375 C57.4648438,29.5171016 59.3180391,31.3702969 61.5957031,31.3702969 Z M61.5957031,25.8624844 L70.2246094,25.8624844 C70.9839531,25.8624844 71.6015625,26.4800937 71.6015625,27.2394375 C71.6015625,27.9987812 70.9839531,28.6163906 70.2246094,28.6163906 L61.5957031,28.6163906 C60.8363594,28.6163906 60.21875,27.9987812 60.21875,27.2394375 C60.21875,26.4800937 60.8363594,25.8624844 61.5957031,25.8624844 Z" id="Shape" fill="#000000" fill-rule="nonzero"></path>
                            <path d="M61.5957031,42.3859219 L84.3613281,42.3859219 C86.6389922,42.3859219 88.4921875,40.5327266 88.4921875,38.2550625 C88.4921875,35.9773984 86.6389922,34.1242031 84.3613281,34.1242031 L61.5957031,34.1242031 C59.3180391,34.1242031 57.4648438,35.9773984 57.4648438,38.2550625 C57.4648438,40.5327266 59.3180391,42.3859219 61.5957031,42.3859219 Z M61.5957031,36.8781094 L84.3613281,36.8781094 C85.1206719,36.8781094 85.7382812,37.4957187 85.7382812,38.2550625 C85.7382812,39.0144063 85.1206719,39.6320156 84.3613281,39.6320156 L61.5957031,39.6320156 C60.8363594,39.6320156 60.21875,39.0144063 60.21875,38.2550625 C60.21875,37.4957187 60.8363594,36.8781094 61.5957031,36.8781094 Z" id="Shape" fill="#000000" fill-rule="nonzero"></path>
                            <path d="M61.5957031,53.4015469 L77.5986523,53.4015469 C79.8763164,53.4015469 81.7295117,51.5483516 81.7295117,49.2706875 C81.7295117,46.9930234 79.8763164,45.1398281 77.5986523,45.1398281 L61.5957031,45.1398281 C59.3180391,45.1398281 57.4648438,46.9930234 57.4648438,49.2706875 C57.4648438,51.5483516 59.3180391,53.4015469 61.5957031,53.4015469 Z M61.5957031,47.8937344 L77.5986523,47.8937344 C78.3579961,47.8937344 78.9756055,48.5113438 78.9756055,49.2706875 C78.9756055,50.0300313 78.3579961,50.6476406 77.5986523,50.6476406 L61.5957031,50.6476406 C60.8363594,50.6476406 60.21875,50.0300313 60.21875,49.2706875 C60.21875,48.5113438 60.8363594,47.8937344 61.5957031,47.8937344 Z" id="Shape" fill="#000000" fill-rule="nonzero"></path>
                        </g>
                    </g>
                </g>
            </g>
        </g>
    </g>
</svg>