<?xml version="1.0" encoding="UTF-8"?>
<svg width="150px" height="150px" viewBox="0 0 150 150" version="1.1" xmlns="http://www.w3.org/2000/svg" xmlns:xlink="http://www.w3.org/1999/xlink">
    <title>icons/contact</title>
    <g id="icons/contact" stroke="none" stroke-width="1" fill="none" fill-rule="evenodd">
        <path d="M140.000105,24.9974528 L51.2510365,24.9974528 L45.5010969,5.97570651 C44.1399711,1.54526398 39.4663525,-0.964280191 35.0212069,0.348429472 L22.2888405,4.0982809 C20.8862211,4.51314653 19.614397,5.28293508 18.5963793,6.33319234 L4.25152983,21.1901037 C3.172901,22.3173202 2.42857649,23.7219754 2.1015524,25.2474429 C0.639067746,31.9971755 -3.39838987,56.466206 6.17650962,88.1199518 C15.7514091,119.773698 32.6762315,138.057973 37.6511793,142.905281 C38.7658991,143.999561 40.1614559,144.76437 41.6836369,145.115194 L61.9159246,149.782509 C62.5414567,149.927041 63.181391,150 63.8234045,150 C64.6391667,150 65.450666,149.882351 66.2333792,149.652514 L73.2783053,147.575096 L78.9557457,145.900162 C81.1171583,145.27739 82.9360147,143.809188 84.0006928,141.827824 C85.0615531,139.879882 85.2948734,137.587286 84.648186,135.465576 L81.4807192,124.993491 L140.000105,124.993491 C145.522894,124.993491 150,120.516516 150,114.993887 L150,34.9970566 C150,29.4744279 145.522894,24.9974528 140.000105,24.9974528 Z M100.625518,74.2455015 L144.692556,33.3321226 C144.890744,33.8650942 144.994791,34.4284552 145.000052,34.9970566 L145.000052,114.993887 C144.992868,115.529559 144.899161,116.06055 144.722555,116.566325 L100.625518,74.2455015 Z M140.000105,29.9972547 C140.283679,30.0014021 140.566377,30.0298384 140.845096,30.0822514 L88.5006455,78.6653264 C86.5828999,80.4438419 83.6184625,80.4438419 81.7007169,78.6653264 L45.7010948,45.3391469 L48.3535669,44.5566779 C50.5108488,43.929575 52.3258502,42.4623038 53.391014,40.4843392 C54.4504744,38.5375946 54.682029,36.2464424 54.0335073,34.1270911 L52.7760205,29.9972547 L140.000105,29.9972547 Z M39.3361616,103.071859 C34.1748812,96.7535675 30.337154,89.4617579 28.05128,81.6302089 C24.8223974,71.7621069 24.3820433,61.1939154 26.7787934,51.0914189 C26.8304086,50.9551618 26.9451329,50.8525657 27.0862901,50.8164298 L40.1036535,46.9790819 L69.4633453,74.1480054 L39.3361616,103.071859 Z M79.5857391,139.447918 C79.1522484,140.251307 78.4132554,140.846089 77.5357606,141.097853 L74.2207954,142.075314 L68.1333593,121.931112 C67.8875814,121.061028 67.1911399,120.391451 66.3120457,120.180055 C65.4329514,119.968659 64.5082159,120.248391 63.8937048,120.911601 C63.2791935,121.574811 63.0706812,122.518135 63.3484095,123.378555 L69.4383456,143.492758 L64.823394,144.852704 C64.2431661,145.025073 63.6281523,145.044022 63.0384128,144.907702 L42.8061251,140.242887 C42.1791705,140.096383 41.6047775,139.779784 41.1461426,139.327923 C36.3961924,134.690607 20.1788626,117.1838 10.9614594,86.6750091 C1.74405615,56.1662179 5.58901579,32.7471458 6.98650112,26.3024011 C7.12091734,25.6839046 7.42373836,25.1146177 7.86149194,24.6574663 L22.1913415,9.80805466 C22.6047009,9.37961384 23.121206,9.06455487 23.6913258,8.89309092 L28.3437769,7.5231452 L34.4312131,27.6648471 C34.7497227,28.7198978 35.7215785,29.441914 36.8236879,29.4422767 C37.0685929,29.4435174 37.3122451,29.4072656 37.5461804,29.334781 C38.8672097,28.9354071 39.6147161,27.5411465 39.2161628,26.2199044 L33.1487265,6.11070116 L36.433692,5.14323949 C38.2482682,4.59626791 40.1649806,5.61201787 40.7311469,7.42064926 L49.2310577,35.5695339 C49.492069,36.4137315 49.4019529,37.3274828 48.9810603,38.1044335 C48.5463191,38.9073022 47.8079601,39.5024741 46.9310818,39.756868 L43.6136167,40.7343293 L42.631127,37.4844581 C42.2065817,36.1964026 40.8324154,35.4817689 39.5340722,35.8738381 C38.2357289,36.2659074 37.4868082,37.6216636 37.8461772,38.9294008 L38.818667,42.1492732 L25.673805,46.0241197 C23.8716661,46.5506864 22.4672198,47.9673697 21.956344,49.7739711 C19.3193062,60.7801181 19.7735009,72.3007561 23.2688302,83.0651521 C26.3385212,93.9909839 32.3464249,103.865518 40.6386479,111.614021 C42.0486898,112.857365 44.0015591,113.282918 45.8010937,112.738976 L58.9784554,108.85413 L59.9609451,112.104002 C60.206723,112.974086 60.9031644,113.643663 61.7822587,113.855058 C62.661353,114.066455 63.5860885,113.786723 64.2005996,113.123513 C64.8151109,112.460302 65.0236232,111.516978 64.7458949,110.656559 L63.7734051,107.436686 L67.0558706,106.469225 C68.8706596,105.926466 70.7851842,106.940467 71.3558255,108.746635 L79.8557363,136.898019 C80.1187045,137.747789 80.0257912,138.667875 79.598239,139.447918 L79.5857391,139.447918 Z M79.9682351,119.993689 L76.1382753,107.316691 C74.7750226,102.87796 70.0895208,100.366827 65.6383855,101.689414 L44.3886085,107.954166 C44.2360026,107.999917 44.0707284,107.970206 43.9436132,107.874169 C43.5936169,107.566681 43.1936211,107.184196 42.7311259,106.749214 L73.1408067,77.5503706 L78.3007526,82.3276813 C82.1435735,85.8709002 88.0627889,85.8709002 91.9056098,82.3276813 L96.9555568,77.6378671 L140.972595,119.886193 C140.652759,119.953939 140.327016,119.989946 140.000105,119.993689 L79.9682351,119.993689 Z" id="Shape" fill="#000000" fill-rule="nonzero"></path>
    </g>
</svg>