<?xml version="1.0" encoding="UTF-8"?>
<svg width="85px" height="75px" viewBox="0 0 85 75" version="1.1" xmlns="http://www.w3.org/2000/svg" xmlns:xlink="http://www.w3.org/1999/xlink">
    <title>dashboard</title>
    <defs>
        <filter id="filter-1">
            <feColorMatrix in="SourceGraphic" type="matrix" values="0 0 0 0 0.447059 0 0 0 0 0.772549 0 0 0 0 0.788235 0 0 0 1.000000 0"></feColorMatrix>
        </filter>
        <polygon id="path-2" points="0 0 85 0 85 74.0322238 0 74.0322238"></polygon>
        <polygon id="path-4" points="0 74.0322581 85 74.0322581 85 0 0 0"></polygon>
    </defs>
    <g id="ESG-Homepage" stroke="none" stroke-width="1" fill="none" fill-rule="evenodd">
        <g id="ESG-HOMEPAGE" transform="translate(-1104.000000, -3469.000000)">
            <g id="Benefit" transform="translate(176.000000, 2993.358586)">
                <g id="Point-8" transform="translate(853.392025, 432.284045)">
                    <g id="dashboard" transform="translate(74.607975, 43.841240)" filter="url(#filter-1)">
                        <g>
                            <g id="Group-3" transform="translate(0.000000, 0.000034)">
                                <mask id="mask-3" fill="white">
                                    <use xlink:href="#path-2"></use>
                                </mask>
                                <g id="Clip-2"></g>
                                <path d="M80.8870968,71.2903226 L24.6774194,71.2903226 L24.6774194,38.3870968 L82.2580645,38.3870968 L82.2580645,69.9193548 C82.2580645,70.6747581 81.643871,71.2903226 80.8870968,71.2903226 L80.8870968,71.2903226 Z M2.74193548,69.9193548 L2.74193548,38.3870968 L21.9354839,38.3870968 L21.9354839,71.2903226 L4.11290323,71.2903226 C3.35612903,71.2903226 2.74193548,70.6747581 2.74193548,69.9193548 L2.74193548,69.9193548 Z M2.74193548,35.6451613 L21.9354839,35.6451613 L21.9354839,19.1935484 L2.74193548,19.1935484 L2.74193548,35.6451613 Z M24.6774194,35.6451613 L82.2580645,35.6451613 L82.2580645,19.1935484 L24.6774194,19.1935484 L24.6774194,35.6451613 Z M4.11290323,2.74193548 L80.8870968,2.74193548 C81.643871,2.74193548 82.2580645,3.3575 82.2580645,4.11290323 L82.2580645,16.4516129 L2.74193548,16.4516129 L2.74193548,4.11290323 C2.74193548,3.3575 3.35612903,2.74193548 4.11290323,2.74193548 L4.11290323,2.74193548 Z M80.8870968,0 L4.11290323,0 C1.84532258,0 0,1.84532258 0,4.11290323 L0,69.9193548 C0,72.1867641 1.84532258,74.0322581 4.11290323,74.0322581 L80.8870968,74.0322581 C83.1546774,74.0322581 85,72.1867641 85,69.9193548 L85,4.11290323 C85,1.84532258 83.1546774,0 80.8870968,0 L80.8870968,0 Z" id="Fill-1" fill="#000000" mask="url(#mask-3)"></path>
                            </g>
                            <path d="M9.59677419,8.22584073 C10.3535484,8.22584073 10.9677419,8.84140524 10.9677419,9.59680847 C10.9677419,10.3522117 10.3535484,10.9677762 9.59677419,10.9677762 C8.84,10.9677762 8.22580645,10.3522117 8.22580645,9.59680847 C8.22580645,8.84140524 8.84,8.22584073 9.59677419,8.22584073 M9.59677419,13.7097117 C11.8643548,13.7097117 13.7096774,11.8643891 13.7096774,9.59680847 C13.7096774,7.32922782 11.8643548,5.48390524 9.59677419,5.48390524 C7.32919355,5.48390524 5.48387097,7.32922782 5.48387097,9.59680847 C5.48387097,11.8643891 7.32919355,13.7097117 9.59677419,13.7097117" id="Fill-4" fill="#000000"></path>
                            <path d="M20.5645161,8.22584073 C21.3212903,8.22584073 21.9354839,8.84140524 21.9354839,9.59680847 C21.9354839,10.3522117 21.3212903,10.9677762 20.5645161,10.9677762 C19.8077419,10.9677762 19.1935484,10.3522117 19.1935484,9.59680847 C19.1935484,8.84140524 19.8077419,8.22584073 20.5645161,8.22584073 M20.5645161,13.7097117 C22.8320968,13.7097117 24.6774194,11.8643891 24.6774194,9.59680847 C24.6774194,7.32922782 22.8320968,5.48390524 20.5645161,5.48390524 C18.2969355,5.48390524 16.4516129,7.32922782 16.4516129,9.59680847 C16.4516129,11.8643891 18.2969355,13.7097117 20.5645161,13.7097117" id="Fill-6" fill="#000000"></path>
                            <path d="M31.5322581,8.22584073 C32.2890323,8.22584073 32.9032258,8.84140524 32.9032258,9.59680847 C32.9032258,10.3522117 32.2890323,10.9677762 31.5322581,10.9677762 C30.7754839,10.9677762 30.1612903,10.3522117 30.1612903,9.59680847 C30.1612903,8.84140524 30.7754839,8.22584073 31.5322581,8.22584073 M31.5322581,13.7097117 C33.7998387,13.7097117 35.6451613,11.8643891 35.6451613,9.59680847 C35.6451613,7.32922782 33.7998387,5.48390524 31.5322581,5.48390524 C29.2646774,5.48390524 27.4193548,7.32922782 27.4193548,9.59680847 C27.4193548,11.8643891 29.2646774,13.7097117 31.5322581,13.7097117" id="Fill-8" fill="#000000"></path>
                            <mask id="mask-5" fill="white">
                                <use xlink:href="#path-4"></use>
                            </mask>
                            <g id="Clip-11"></g>
                            <path d="M8.22580645,30.1612903 L16.4516129,30.1612903 L16.4516129,24.6774194 L8.22580645,24.6774194 L8.22580645,30.1612903 Z M5.48387097,32.9032258 L19.1935484,32.9032258 L19.1935484,21.9354839 L5.48387097,21.9354839 L5.48387097,32.9032258 Z" id="Fill-10" fill="#000000" mask="url(#mask-5)"></path>
                            <path d="M71.2903226,30.1613246 C69.7781452,30.1613246 68.5483871,28.9315665 68.5483871,27.4193891 C68.5483871,25.9072117 69.7781452,24.6774536 71.2903226,24.6774536 C72.8025,24.6774536 74.0322581,25.9072117 74.0322581,27.4193891 C74.0322581,28.9315665 72.8025,30.1613246 71.2903226,30.1613246 M71.2903226,21.9355181 C68.2659677,21.9355181 65.8064516,24.3950343 65.8064516,27.4193891 C65.8064516,30.443744 68.2659677,32.9032601 71.2903226,32.9032601 C74.3146774,32.9032601 76.7741935,30.443744 76.7741935,27.4193891 C76.7741935,24.3950343 74.3146774,21.9355181 71.2903226,21.9355181" id="Fill-12" fill="#000000" mask="url(#mask-5)"></path>
                            <path d="M54.8387097,30.1613246 C53.3265323,30.1613246 52.0967742,28.9315665 52.0967742,27.4193891 C52.0967742,25.9072117 53.3265323,24.6774536 54.8387097,24.6774536 C56.3508871,24.6774536 57.5806452,25.9072117 57.5806452,27.4193891 C57.5806452,28.9315665 56.3508871,30.1613246 54.8387097,30.1613246 M54.8387097,21.9355181 C51.8143548,21.9355181 49.3548387,24.3950343 49.3548387,27.4193891 C49.3548387,30.443744 51.8143548,32.9032601 54.8387097,32.9032601 C57.8630645,32.9032601 60.3225806,30.443744 60.3225806,27.4193891 C60.3225806,24.3950343 57.8630645,21.9355181 54.8387097,21.9355181" id="Fill-13" fill="#000000" mask="url(#mask-5)"></path>
                            <path d="M38.3870968,30.1613246 C36.8749194,30.1613246 35.6451613,28.9315665 35.6451613,27.4193891 C35.6451613,25.9072117 36.8749194,24.6774536 38.3870968,24.6774536 C39.8992742,24.6774536 41.1290323,25.9072117 41.1290323,27.4193891 C41.1290323,28.9315665 39.8992742,30.1613246 38.3870968,30.1613246 M38.3870968,21.9355181 C35.3627419,21.9355181 32.9032258,24.3950343 32.9032258,27.4193891 C32.9032258,30.443744 35.3627419,32.9032601 38.3870968,32.9032601 C41.4114516,32.9032601 43.8709677,30.443744 43.8709677,27.4193891 C43.8709677,24.3950343 41.4114516,21.9355181 38.3870968,21.9355181" id="Fill-14" fill="#000000" mask="url(#mask-5)"></path>
                            <path d="M8.22580645,49.3548387 L16.4516129,49.3548387 L16.4516129,46.6129032 L8.22580645,46.6129032 L8.22580645,49.3548387 Z M5.48387097,52.0967742 L19.1935484,52.0967742 L19.1935484,43.8709677 L5.48387097,43.8709677 L5.48387097,52.0967742 Z" id="Fill-15" fill="#000000" mask="url(#mask-5)"></path>
                            <path d="M8.22580645,63.0645161 L16.4516129,63.0645161 L16.4516129,60.3225806 L8.22580645,60.3225806 L8.22580645,63.0645161 Z M5.48387097,65.8064516 L19.1935484,65.8064516 L19.1935484,57.5806452 L5.48387097,57.5806452 L5.48387097,65.8064516 Z" id="Fill-16" fill="#000000" mask="url(#mask-5)"></path>
                            <path d="M52.0967742,65.8064516 L54.8387097,65.8064516 L54.8387097,57.5806452 L52.0967742,57.5806452 L52.0967742,65.8064516 Z M41.1290323,65.8064516 L43.8709677,65.8064516 L43.8709677,43.8709677 L41.1290323,43.8709677 L41.1290323,65.8064516 Z M30.1612903,65.8064516 L32.9032258,65.8064516 L32.9032258,49.3548387 L30.1612903,49.3548387 L30.1612903,65.8064516 Z M49.3548387,65.8064516 L46.6129032,65.8064516 L46.6129032,41.1290323 L38.3870968,41.1290323 L38.3870968,65.8064516 L35.6451613,65.8064516 L35.6451613,46.6129032 L27.4193548,46.6129032 L27.4193548,68.5483871 L57.5806452,68.5483871 L57.5806452,54.8387097 L49.3548387,54.8387097 L49.3548387,65.8064516 Z" id="Fill-17" fill="#000000" mask="url(#mask-5)"></path>
                            <path d="M63.0645161,49.3548387 L76.7741935,49.3548387 L76.7741935,43.8709677 L63.0645161,43.8709677 L63.0645161,49.3548387 Z M60.3225806,52.0967742 L79.516129,52.0967742 L79.516129,41.1290323 L60.3225806,41.1290323 L60.3225806,52.0967742 Z" id="Fill-18" fill="#000000" mask="url(#mask-5)"></path>
                            <polygon id="Fill-19" fill="#000000" mask="url(#mask-5)" points="60.3225806 57.5806452 63.0645161 57.5806452 63.0645161 54.8387097 60.3225806 54.8387097"></polygon>
                            <polygon id="Fill-20" fill="#000000" mask="url(#mask-5)" points="65.8064516 57.5806452 79.516129 57.5806452 79.516129 54.8387097 65.8064516 54.8387097"></polygon>
                            <polygon id="Fill-21" fill="#000000" mask="url(#mask-5)" points="60.3225806 63.0645161 63.0645161 63.0645161 63.0645161 60.3225806 60.3225806 60.3225806"></polygon>
                            <polygon id="Fill-22" fill="#000000" mask="url(#mask-5)" points="65.8064516 63.0645161 79.516129 63.0645161 79.516129 60.3225806 65.8064516 60.3225806"></polygon>
                            <polygon id="Fill-23" fill="#000000" mask="url(#mask-5)" points="60.3225806 68.5483871 63.0645161 68.5483871 63.0645161 65.8064516 60.3225806 65.8064516"></polygon>
                            <polygon id="Fill-24" fill="#000000" mask="url(#mask-5)" points="65.8064516 68.5483871 79.516129 68.5483871 79.516129 65.8064516 65.8064516 65.8064516"></polygon>
                        </g>
                    </g>
                </g>
            </g>
        </g>
    </g>
</svg>