<?xml version="1.0" encoding="UTF-8"?>
<svg width="63.5px" height="68px" viewBox="0 0 63.5 68" version="1.1" xmlns="http://www.w3.org/2000/svg" xmlns:xlink="http://www.w3.org/1999/xlink">
    <title>icons/data-performance</title>
    <g id="icons/data-performance" stroke="none" stroke-width="1" fill="none" fill-rule="evenodd">
        <path d="M5.7342233,37 C8.89615049,37 11.4684466,34.3848151 11.4684466,31.1701681 C11.4684466,30.2294664 11.2467233,29.3408445 10.8558786,28.5532731 L19.3122524,21.7819622 C20.3118422,22.6430672 21.6036481,23.164021 23.0133495,23.164021 C24.414182,23.164021 25.698801,22.6499076 26.6957913,21.7984412 L35.0292233,28.5308866 C34.6313447,29.3240546 34.4053398,30.2204496 34.4053398,31.1701681 C34.4053398,34.3848151 36.9776359,37 40.1395631,37 C43.3014903,37 45.8737864,34.3848151 45.8737864,31.1701681 C45.8737864,29.6007773 45.2595364,28.1753445 44.2642282,27.1262857 L55.0294296,11.1977857 C55.7169248,11.4950294 56.4727718,11.6596639 57.2657767,11.6596639 C60.4277039,11.6596639 63,9.04447899 63,5.82983193 C63,2.61518487 60.4277039,0 57.2657767,0 C54.1038495,0 51.5315534,2.61518487 51.5315534,5.82983193 C51.5315534,7.39922269 52.1458034,8.82465546 53.1411117,9.87371429 L42.3759102,25.8022143 C41.688415,25.5049706 40.932415,25.3403361 40.1394102,25.3403361 C38.7385777,25.3403361 37.4539587,25.8544496 36.4569684,26.705916 L28.1235364,19.9734706 C28.521415,19.1803025 28.7474199,18.2839076 28.7474199,17.3341891 C28.7474199,14.119542 26.1751238,11.5043571 23.0131966,11.5043571 C19.8512694,11.5043571 17.2791262,14.1193866 17.2791262,17.3340336 C17.2791262,18.2747353 17.5008495,19.1633571 17.8916942,19.9509286 L9.43532039,26.7222395 C8.43573058,25.8611345 7.14392476,25.3401807 5.7342233,25.3401807 C2.57229612,25.3403361 0,27.955521 0,31.1701681 C0,34.3848151 2.57229612,37 5.7342233,37 Z M57.2657767,2.33193277 C59.1629636,2.33193277 60.7063107,3.90101261 60.7063107,5.82983193 C60.7063107,7.75865126 59.1629636,9.32773109 57.2657767,9.32773109 C55.3685898,9.32773109 53.8252427,7.75865126 53.8252427,5.82983193 C53.8252427,3.90101261 55.3685898,2.33193277 57.2657767,2.33193277 Z M40.1395631,27.6722689 C42.03675,27.6722689 43.5800971,29.2413487 43.5800971,31.1701681 C43.5800971,33.0989874 42.03675,34.6680672 40.1395631,34.6680672 C38.2423762,34.6680672 36.6990291,33.0989874 36.6990291,31.1701681 C36.6990291,29.2413487 38.2423762,27.6722689 40.1395631,27.6722689 Z M23.0133495,13.8361345 C24.9105364,13.8361345 26.4538835,15.4052143 26.4538835,17.3340336 C26.4538835,19.2628529 24.9105364,20.8319328 23.0133495,20.8319328 C21.1161626,20.8319328 19.5728155,19.2628529 19.5728155,17.3340336 C19.5728155,15.4052143 21.1161626,13.8361345 23.0133495,13.8361345 Z M5.7342233,27.6722689 C7.63141019,27.6722689 9.17475728,29.2413487 9.17475728,31.1701681 C9.17475728,33.0989874 7.63141019,34.6680672 5.7342233,34.6680672 C3.83703641,34.6680672 2.29368932,33.0989874 2.29368932,31.1701681 C2.29368932,29.2413487 3.83703641,27.6722689 5.7342233,27.6722689 Z" id="Shape" fill="#000000" fill-rule="nonzero"></path>
        <path d="M1.76923077,43 C1.06827692,43 0.5,43.5416129 0.5,44.2096774 L0.5,66.7903226 C0.5,67.4583871 1.06827692,68 1.76923077,68 L10.2307692,68 C10.9317231,68 11.5,67.4583871 11.5,66.7903226 L11.5,44.2096774 C11.5,43.5416129 10.9317231,43 10.2307692,43 L1.76923077,43 Z M8.96153846,65.5806452 L3.03846154,65.5806452 L3.03846154,45.4193548 L8.96153846,45.4193548 L8.96153846,65.5806452 Z" id="Shape" fill="#000000" fill-rule="nonzero"></path>
        <path d="M18.7692308,31 C18.0682769,31 17.5,31.5092049 17.5,32.1372951 L17.5,66.8627049 C17.5,67.4907951 18.0682769,68 18.7692308,68 L27.2307692,68 C27.9317231,68 28.5,67.4907951 28.5,66.8627049 L28.5,32.1372951 C28.5,31.5092049 27.9317231,31 27.2307692,31 L18.7692308,31 Z M25.9615385,65.7254098 L20.0384615,65.7254098 L20.0384615,33.2745902 L25.9615385,33.2745902 L25.9615385,65.7254098 Z" id="Shape" fill="#000000" fill-rule="nonzero"></path>
        <path d="M35.7692308,43 C35.0682769,43 34.5,43.5416129 34.5,44.2096774 L34.5,66.7903226 C34.5,67.4583871 35.0682769,68 35.7692308,68 L44.2307692,68 C44.9317231,68 45.5,67.4583871 45.5,66.7903226 L45.5,44.2096774 C45.5,43.5416129 44.9317231,43 44.2307692,43 L35.7692308,43 Z M42.9615385,65.5806452 L37.0384615,65.5806452 L37.0384615,45.4193548 L42.9615385,45.4193548 L42.9615385,65.5806452 Z" id="Shape" fill="#000000" fill-rule="nonzero"></path>
        <path d="M53.7692308,20 C53.0682769,20 52.5,20.5068679 52.5,21.1320755 L52.5,66.8679245 C52.5,67.4931321 53.0682769,68 53.7692308,68 L62.2307692,68 C62.9317231,68 63.5,67.4931321 63.5,66.8679245 L63.5,21.1320755 C63.5,20.5068679 62.9317231,20 62.2307692,20 L53.7692308,20 Z M60.9615385,65.7358491 L55.0384615,65.7358491 L55.0384615,22.2641509 L60.9615385,22.2641509 L60.9615385,65.7358491 Z" id="Shape" fill="#000000" fill-rule="nonzero"></path>
    </g>
</svg>