<?xml version="1.0" encoding="UTF-8"?>
<svg width="82px" height="70px" viewBox="0 0 82 70" version="1.1" xmlns="http://www.w3.org/2000/svg" xmlns:xlink="http://www.w3.org/1999/xlink">
    <title>icons/data-performance-2</title>
    <g id="icons/data-performance-2" stroke="none" stroke-width="1" fill="none" fill-rule="evenodd">
        <path d="M1.50812594,24 C1.03839472,24 0.587452751,23.7908012 0.286824772,23.3724035 C-0.201695693,22.6877528 -0.0513817039,21.7368489 0.625031248,21.242379 L26.9487686,1.90099562 C28.564644,0.702856825 30.7629861,0.702856825 32.3788615,1.88197754 L53.7798157,17.2866192 C54.3247039,17.6859987 55.0574846,17.7050168 55.6023728,17.3436734 L77.6421615,1.63474255 C78.3185745,1.15929065 79.2580369,1.31143526 79.7277681,1.996086 C80.1974993,2.68073674 80.0471853,3.63164054 79.3707724,4.10709244 L57.3121945,19.8350413 C57.2934052,19.8350413 57.2934052,19.8540594 57.274616,19.8540594 C55.6963191,20.9190717 53.5919232,20.8810355 52.0324156,19.758969 L30.6314614,4.35432743 C30.0489947,3.93592976 29.2786355,3.93592976 28.6961687,4.37334551 L2.39122062,23.7147289 C2.12817114,23.9049096 1.80875391,24 1.50812594,24 Z" id="Path" fill="#000000" fill-rule="nonzero"></path>
        <path d="M78.9247132,14 C78.8526054,14 78.7624706,14 78.6903628,13.9824125 C77.8971767,13.8593002 77.3743949,13.1382136 77.5005836,12.3643646 L79.0689289,3.0781763 L69.4064796,2.81436413 C68.6132934,2.79677665 67.9823499,2.14603998 68.0003769,1.37219095 C68.0184038,0.598341933 68.6854013,-0.0172197897 69.4785874,0.000367688074 L79.4835489,0.281767333 C80.2226542,0.29935481 80.9257056,0.633516888 81.3944065,1.19631618 C81.8811343,1.75911547 82.0794308,2.49778953 81.9712691,3.21887612 L80.3488429,12.8392265 C80.2226542,13.5075506 79.6277646,14 78.9247132,14 Z" id="Shape" fill="#000000" fill-rule="nonzero"></path>
        <path d="M25.5226223,70 L8.47737765,70 C7.66481994,70 7,69.3085135 7,68.4633634 L7,30.9502214 C7,30.4508145 7.24007387,29.9706155 7.6278855,29.6824962 L24.6731302,17.2741553 C25.1163435,16.94762 25.7072946,16.9092041 26.2059095,17.1781155 C26.6860572,17.4470269 27,17.9656418 27,18.5418805 L27,68.4633634 C27,69.3085135 26.3351801,70 25.5226223,70 Z M9.95475531,66.9267267 L24.0452447,66.9267267 L24.0452447,21.4999061 L9.95475531,31.7569556 L9.95475531,66.9267267 Z" id="Shape" fill="#000000" fill-rule="nonzero"></path>
        <path d="M51.5226223,70 L34.4773777,70 C33.6648199,70 33,69.3085135 33,68.4633634 L33,18.5418805 C33,17.9656418 33.3139428,17.4470269 33.7940905,17.1781155 C34.2742382,16.9092041 34.8651893,16.94762 35.3268698,17.2741553 L52.3721145,29.6824962 C52.7599261,29.9706155 53,30.4316065 53,30.9502214 L53,68.4633634 C53,69.3085135 52.3351801,70 51.5226223,70 Z M35.9547553,66.9267267 L50.0452447,66.9267267 L50.0452447,31.7569556 L35.9547553,21.4999061 L35.9547553,66.9267267 Z" id="Shape" fill="#000000" fill-rule="nonzero"></path>
        <path d="M76.5212569,70 L59.4787431,70 C58.6654344,70 58,69.3077609 58,68.4616908 L58,30.8115743 C58,30.3116238 58.2402957,29.8309022 58.6284658,29.5424692 L75.6709797,17.2744537 C76.1146026,16.947563 76.7060998,16.9091053 77.2051756,17.1783094 C77.6857671,17.4475135 78,17.9666928 78,18.5435588 L78,68.4616908 C78,69.3077609 77.3345656,70 76.5212569,70 Z M60.9574861,66.9233817 L75.0425139,66.9233817 L75.0425139,21.485575 L60.9574861,31.6191866 L60.9574861,66.9233817 Z" id="Shape" fill="#000000" fill-rule="nonzero"></path>
    </g>
</svg>