<?xml version="1.0" encoding="UTF-8"?>
<svg width="60px" height="61.0169529px" viewBox="0 0 60 61.0169529" version="1.1" xmlns="http://www.w3.org/2000/svg" xmlns:xlink="http://www.w3.org/1999/xlink">
    <title>icons/data-capture</title>
    <g id="icons/data-capture" stroke="none" stroke-width="1" fill="none" fill-rule="evenodd">
        <path d="M45.7628815,6.39488462e-14 L5.08476462,6.39488462e-14 C2.27797455,0.003305097 0.003305097,2.27797455 -3.55271368e-15,5.08476462 L-3.55271368e-15,37.6272582 C-3.55271368e-15,39.9465464 1.56890412,41.9719353 3.81459041,42.5513442 L4.32306688,40.5825233 C2.9752229,40.2349797 2.03339737,39.0192125 2.03390585,37.6272582 L2.03390585,5.08476462 C2.03390585,3.39980074 3.39980074,2.03390585 5.08476462,2.03390585 L45.7628815,2.03390585 C47.4478454,2.03390585 48.8137403,3.39980074 48.8137403,5.08476462 L48.8137403,6.10171754 L50.8476462,6.10171754 L50.8476462,5.08476462 C50.8443411,2.27797455 48.5696716,0.003305097 45.7628815,6.39488462e-14 Z" id="Path" fill="#000000" fill-rule="nonzero"></path>
        <rect id="Rectangle" fill="#000000" fill-rule="nonzero" x="4.06781169" y="4.06781169" width="2.03390585" height="2.03390585"></rect>
        <rect id="Rectangle" fill="#000000" fill-rule="nonzero" x="8.13562338" y="4.06781169" width="2.03390585" height="2.03390585"></rect>
        <rect id="Rectangle" fill="#000000" fill-rule="nonzero" x="12.2034351" y="4.06781169" width="2.03390585" height="2.03390585"></rect>
        <path d="M59.7022553,56.230378 L50.0564568,46.5845795 C50.5631536,45.680127 50.9684093,44.7224116 51.2645968,43.7289757 L52.881552,43.7289757 L52.881552,41.6950698 L51.7018866,41.6950698 C52.0848965,39.2334082 51.7895988,36.7139073 50.8476462,34.4075852 L50.8476462,24.4068702 L48.8137403,24.4068702 L48.8137403,30.8828264 C48.2097974,30.1113405 47.5283118,29.4039226 46.7798345,28.7716321 L46.7798345,20.3390585 L44.7459286,20.3390585 L44.7459286,27.3499319 C44.0949516,26.9726424 43.4147372,26.647853 42.7120228,26.3787419 L42.7120228,16.2712468 L40.6781169,16.2712468 L40.6781169,25.7614514 C40.0079449,25.6167899 39.328239,25.5213234 38.6442111,25.4756877 L38.6442111,18.3051526 L36.6103052,18.3051526 L36.6103052,25.4756877 C35.9262773,25.5213234 35.2465714,25.6167899 34.5763994,25.7614514 L34.5763994,22.3729643 L32.5424935,22.3729643 L32.5424935,26.3787419 C31.8397791,26.647853 31.1596918,26.9726424 30.5085877,27.3499319 L30.5085877,21.3560114 L28.4746818,21.3560114 L28.4746818,28.7716321 C27.7262045,29.4039226 27.0447189,30.1113405 26.440776,30.8828264 L26.440776,23.3899172 L24.4068702,23.3899172 L24.4068702,34.4075852 C23.4649175,36.7139073 23.1696198,39.2334082 23.5526297,41.6950698 L10.1695292,41.6950698 L10.1695292,43.7289757 L23.9899195,43.7289757 C26.2203515,51.2521392 34.1271604,55.5426636 41.6501968,53.3122316 C43.1326599,52.8726537 44.5335126,52.1940918 45.7974579,51.3032411 L55.213425,60.7192082 C55.6105452,61.1162012 56.2542764,61.1162012 56.6513965,60.7192082 L59.7022553,57.6683494 C60.0992482,57.2712293 60.0992482,56.6274981 59.7022553,56.230378 Z M37.6272582,51.8645991 C30.8904535,51.8573533 25.4310689,46.3979686 25.4238231,39.661164 C25.4238231,32.9214356 30.8875298,27.4577289 37.6272582,27.4577289 C44.3669865,27.4577289 49.8306932,32.9214356 49.8306932,39.661164 C49.8306932,46.4008924 44.3669865,51.8645991 37.6272582,51.8645991 Z M55.9324108,58.562251 L47.3778028,50.007643 C47.9320421,49.4839123 48.4438237,48.9170881 48.9083169,48.3123825 L57.5452981,56.9493637 L55.9324108,58.562251 Z" id="Shape" fill="#000000" fill-rule="nonzero"></path>
        <path d="M37.6272582,29.4916348 C32.0107543,29.4916348 27.4577289,34.0446601 27.4577289,39.661164 C27.4577289,45.2776679 32.0107543,49.8306932 37.6272582,49.8306932 C43.243762,49.8306932 47.7967874,45.2776679 47.7967874,39.661164 C47.7906857,34.0472025 43.2412196,29.4977365 37.6272582,29.4916348 Z M37.6272582,47.7967874 C34.724366,47.7931009 32.0434239,46.2428833 30.5919778,43.7289757 L44.6625385,43.7289757 C43.2110924,46.2428833 40.5301503,47.7931009 37.6272582,47.7967874 Z M29.7590934,41.6950698 C28.9408276,38.5984482 30.0334164,35.3111479 32.5424935,33.3204625 L32.5424935,39.661164 L34.5763994,39.661164 L34.5763994,32.1245259 C35.2285204,31.8606266 35.9122942,31.6829141 36.6103052,31.5957104 L36.6103052,39.661164 L38.6442111,39.661164 L38.6442111,31.5957104 C39.3422221,31.6829141 40.0259959,31.8606266 40.6781169,32.1245259 L40.6781169,39.661164 L42.7120228,39.661164 L42.7120228,33.3204625 C45.2210999,35.3111479 46.3136887,38.5984482 45.4954229,41.6950698 L29.7590934,41.6950698 Z" id="Shape" fill="#000000" fill-rule="nonzero"></path>
        <path d="M51.8645991,8.13562338 L11.1864822,8.13562338 C8.37969209,8.13892848 6.10502264,10.4135979 6.10171754,13.220388 L6.10171754,45.7628815 C6.10502264,48.5696716 8.37969209,50.8443411 11.1864822,50.8476462 L24.4068702,50.8476462 L24.4068702,48.8137403 L11.1864822,48.8137403 C9.50151828,48.8137403 8.13562338,47.4478454 8.13562338,45.7628815 L8.13562338,13.220388 C8.13562338,11.5354241 9.50151828,10.1695292 11.1864822,10.1695292 L51.8645991,10.1695292 C53.5495629,10.1695292 54.9154578,11.5354241 54.9154578,13.220388 L54.9154578,45.7628815 C54.9153307,46.5058928 54.6441857,47.2232259 54.1527432,47.7805161 L55.6781725,49.1259449 C56.4978366,48.1974668 56.9493641,47.0014031 56.9493641,45.7628815 L56.9493641,13.220388 C56.9460586,10.4135979 54.6713891,8.13892848 51.8645991,8.13562338 Z" id="Path" fill="#000000" fill-rule="nonzero"></path>
        <rect id="Rectangle" fill="#000000" fill-rule="nonzero" x="10.1695292" y="12.2034351" width="2.03390585" height="2.03390585"></rect>
        <rect id="Rectangle" fill="#000000" fill-rule="nonzero" x="14.2373409" y="12.2034351" width="2.03390585" height="2.03390585"></rect>
        <rect id="Rectangle" fill="#000000" fill-rule="nonzero" x="18.3051526" y="12.2034351" width="2.03390585" height="2.03390585"></rect>
        <rect id="Rectangle" fill="#000000" fill-rule="nonzero" x="12.2034351" y="33.5594465" width="2.03390585" height="6.10171754"></rect>
        <rect id="Rectangle" fill="#000000" fill-rule="nonzero" x="16.2712468" y="27.4577289" width="2.03390585" height="12.2034351"></rect>
        <rect id="Rectangle" fill="#000000" fill-rule="nonzero" x="20.3390585" y="30.5085877" width="2.03390585" height="9.15257631"></rect>
    </g>
</svg>