<?xml version="1.0" encoding="UTF-8"?>
<svg width="73px" height="68px" viewBox="0 0 73 68" version="1.1" xmlns="http://www.w3.org/2000/svg" xmlns:xlink="http://www.w3.org/1999/xlink">
    <title>icons/data-reporting</title>
    <g id="icons/data-reporting" stroke="none" stroke-width="1" fill="none" fill-rule="evenodd">
        <path d="M70.497459,0 L2.50239845,0 C1.12266454,0 0,1.12887461 0,2.51624057 L0,6.84966245 C0,8.20649117 1.07418779,9.3128571 2.41200356,9.36131527 L2.41200356,37.4660493 C2.41200356,38.059877 2.89078278,38.5413046 3.48134368,38.5413046 C4.07190458,38.5413046 4.55068379,38.059877 4.55068379,37.4660493 L4.55068379,9.36604639 L55.7683682,9.36604639 C56.3590717,9.36604639 56.8377084,8.88461879 56.8377084,8.29079118 C56.8377084,7.69696356 56.3590717,7.21553596 55.7683682,7.21553596 L2.50239845,7.21553596 C2.30179024,7.21553596 2.13868023,7.05138033 2.13868023,6.84980582 L2.13868023,2.51624057 C2.13868023,2.31452269 2.30193282,2.15051043 2.50239845,2.15051043 L70.497459,2.15051043 C70.6980672,2.15051043 70.8613198,2.31466606 70.8613198,2.51624057 L70.8613198,6.84966245 C70.8613198,7.05138033 70.6980672,7.21539259 70.497459,7.21539259 L60.5195177,7.21539259 C59.9288142,7.21539259 59.4501775,7.6968202 59.4501775,8.29064781 C59.4501775,8.88447542 59.9288142,9.36590302 60.5195177,9.36590302 L68.4497439,9.36590302 L68.4497439,53.1075719 C68.4497439,53.3051321 68.2899132,53.4659903 68.0932972,53.4659903 L4.9071305,53.4659903 C4.71065707,53.4659903 4.55068379,53.3051321 4.55068379,53.1075719 L4.55068379,42.2436233 C4.55068379,41.6497957 4.07190458,41.1683681 3.48134368,41.1683681 C2.89078278,41.1683681 2.41200356,41.6497957 2.41200356,42.2436233 L2.41200356,53.1075719 C2.41200356,54.4909236 3.53138879,55.6165007 4.9071305,55.6165007 L35.4308025,55.6165007 L35.4308025,59.9266971 C33.6950496,60.4006696 32.4142653,61.9982121 32.4142653,63.8915215 C32.4142653,66.1570126 34.2472568,68 36.5002852,68 C38.7533135,68 40.586305,66.1570126 40.586305,63.8915215 C40.586305,61.9980688 39.3053781,60.4005262 37.5694827,59.9265537 L37.5694827,55.6165007 L68.0932972,55.6165007 C69.4690389,55.6165007 70.5884242,54.4909236 70.5884242,53.1075719 L70.5884242,9.36131527 C71.9259548,9.31271373 73,8.20620443 73,6.84966245 L73,2.51624057 C73,1.12887461 71.8773355,0 70.497459,0 Z M38.4476248,63.8915215 C38.4476248,64.9712211 37.5740452,65.8494896 36.5002852,65.8494896 C35.4265251,65.8494896 34.5529455,64.9712211 34.5529455,63.8915215 C34.5529455,62.8118219 35.4265251,61.9334101 36.5002852,61.9334101 C37.5740452,61.9334101 38.4476248,62.8118219 38.4476248,63.8915215 Z" id="Shape" fill="#000000" fill-rule="nonzero"></path>
        <path d="M63.8895141,44 L56.1104859,44 C55.4970535,44 55,44.4477333 55,45 C55,45.5522667 55.4970535,46 56.1104859,46 L63.8895141,46 C64.5029465,46 65,45.5522667 65,45 C65,44.4477333 64.5029465,44 63.8895141,44 Z" id="Path" fill="#000000" fill-rule="nonzero"></path>
        <path d="M49.0618187,49 L63.9381813,49 C64.52473,49 65,48.5522667 65,48 C65,47.4477333 64.52473,47 63.9381813,47 L49.0618187,47 C48.47527,47 48,47.4477333 48,48 C48,48.5522667 48.47527,49 49.0618187,49 Z" id="Path" fill="#000000" fill-rule="nonzero"></path>
        <path d="M49.1980831,17 L50.8019169,17 C51.463738,17 52,16.5522667 52,16 C52,15.4477333 51.463738,15 50.8019169,15 L49.1980831,15 C48.536262,15 48,15.4477333 48,16 C48,16.5522667 48.536262,17 49.1980831,17 Z" id="Path" fill="#000000" fill-rule="nonzero"></path>
        <path d="M63.9086544,17 C64.5115137,17 65,16.5522667 65,16 C65,15.4477333 64.5115137,15 63.9086544,15 L54.0913456,15 C53.4884863,15 53,15.4477333 53,16 C53,16.5522667 53.4884863,17 54.0913456,17 L63.9086544,17 Z" id="Path" fill="#000000" fill-rule="nonzero"></path>
        <path d="M49.0618187,21 L63.9381813,21 C64.52473,21 65,20.5522667 65,20 C65,19.4477333 64.52473,19 63.9381813,19 L49.0618187,19 C48.47527,19 48,19.4477333 48,20 C48,20.5522667 48.47527,21 49.0618187,21 Z" id="Path" fill="#000000" fill-rule="nonzero"></path>
        <path d="M48,37.9142798 C48,38.5138869 48.47527,39 49.0618187,39 L63.9381813,39 C64.52473,39 65,38.5138869 65,37.9142798 C65,37.3146727 64.52473,36.8285596 63.9381813,36.8285596 L61.3862771,36.8285596 L61.3862771,27.3806225 C61.3862771,26.7810154 60.9110071,26.2949023 60.3244585,26.2949023 C59.7379098,26.2949023 59.2626398,26.7810154 59.2626398,27.3806225 L59.2626398,36.8285596 L57.5618895,36.8285596 L57.5618895,33.3386206 C57.5618895,32.7390135 57.0866194,32.2529004 56.5000708,32.2529004 C55.9135222,32.2529004 55.4382521,32.7390135 55.4382521,33.3386206 L55.4382521,36.8285596 L53.7373602,36.8285596 L53.7373602,30.5887085 C53.7373602,29.9891014 53.2620902,29.5029883 52.6755415,29.5029883 C52.0889929,29.5029883 51.6137229,29.9891014 51.6137229,30.5887085 L51.6137229,36.8285596 L50.1236373,36.8285596 L50.1236373,26.0857202 C50.1236373,25.4861131 49.6483673,25 49.0618187,25 C48.47527,25 48,25.4861131 48,26.0857202 L48,37.9142798 Z" id="Path" fill="#000000" fill-rule="nonzero"></path>
        <path d="M35.7951312,19.5270707 C36.2578641,19.8915117 36.9288483,19.811568 37.2932879,19.3486909 C37.6577274,18.8858139 37.5779263,18.2149693 37.1149088,17.8505283 C33.9146116,15.3315895 30.071211,14 25.9999289,14 C16.0748541,14 8,22.0747438 8,32 C8,41.9252562 16.0747118,50 25.9999289,50 C35.9251459,50 44,41.9252562 44,32 C44,28.2012502 42.8248887,24.5658018 40.6016935,21.4862612 C40.2565997,21.0085902 39.589883,20.9010503 39.112214,21.2457187 C38.6345449,21.5906717 38.5267209,22.2575333 38.8716725,22.7352042 C40.621466,25.1589787 41.6319963,27.9740791 41.8284409,30.932993 L37.432122,30.932993 C36.9244386,25.4510151 32.5487456,21.0753048 27.0667894,20.5677617 L27.0667894,16.1718522 C30.2572714,16.3815266 33.2562876,17.5286196 35.7951312,19.5270707 L35.7951312,19.5270707 Z M10.1337211,31.9998578 C10.1337211,23.6097488 16.6801196,16.7210741 24.9330683,16.1702874 L24.9330683,20.5677617 C19.0996171,21.1078798 14.5165265,26.0276911 14.5165265,31.9998578 C14.5165265,38.3319135 19.6678982,43.4833055 25.9999289,43.4833055 C29.0359295,43.4833055 31.7986716,42.2968097 33.8541562,40.3659267 C34.8892954,41.3979406 35.9232967,42.4310924 36.9564444,43.4650977 C34.1062198,46.1900126 30.2451804,47.8661282 25.9999289,47.8661282 C17.2513879,47.8661282 10.1337211,40.7485755 10.1337211,31.9998578 Z M37.432122,33.0667225 L41.8295789,33.0667225 C41.6078142,36.3895084 40.3588761,39.4353361 38.3978442,41.8889828 C37.356446,40.8468693 36.3143366,39.8054671 35.2710893,38.7653451 C36.4627014,37.1367405 37.2359619,35.1845202 37.432122,33.0667225 Z M35.3497524,31.9998578 C35.3497524,37.155375 31.1554258,41.349576 25.9999289,41.349576 C20.844432,41.349576 16.6502476,37.155375 16.6502476,31.9998578 C16.6502476,26.8443405 20.844432,22.6501395 25.9999289,22.6501395 C31.1554258,22.6501395 35.3497524,26.8443405 35.3497524,31.9998578 Z" id="Shape" fill="#000000" fill-rule="nonzero"></path>
    </g>
</svg>