<?xml version="1.0" encoding="UTF-8"?>
<svg width="32px" height="30px" viewBox="0 0 32 30" version="1.1" xmlns="http://www.w3.org/2000/svg" xmlns:xlink="http://www.w3.org/1999/xlink">
    <title>icons/email</title>
    <g id="icons/email" stroke="none" stroke-width="1" fill="none" fill-rule="evenodd">
        <path d="M31.8169375,9.78099609 L28.625,6.78849609 L28.625,0.5859375 C28.625,0.262324219 28.345125,0 28,0 L18.792375,0 C18.44725,0 18.167375,0.262324219 18.167375,0.5859375 C18.167375,0.909550781 18.44725,1.171875 18.792375,1.171875 L27.375,1.171875 L27.375,13.1166211 L15.971875,23.8071094 L4.625,13.1694141 L4.625,1.171875 L13.167375,1.171875 C13.5125,1.171875 13.792375,0.909550781 13.792375,0.5859375 C13.792375,0.262324219 13.5125,0 13.167375,0 L4,0 C3.654875,0 3.375,0.262324219 3.375,0.5859375 L3.375,6.78849609 L0.1830625,9.78099609 C0.065875,9.89085937 0,10.0399219 0,10.1953125 L0,27.0703125 C0,28.6857422 1.401875,30 3.125,30 L28.875,30 C30.598125,30 32,28.6857422 32,27.0703125 L32,10.1953125 C32,10.0399219 31.934125,9.89085938 31.8169375,9.78099609 Z M30.75,27.0703125 C30.75,27.3413086 30.684125,27.5981836 30.56675,27.8276953 L22.0089375,19.8046875 L30.75,11.6099414 L30.75,27.0703125 Z M28.625,8.44582031 L30.491125,10.1953125 L28.625,11.9447461 L28.625,8.44582031 Z M1.43325,27.8276953 C1.315875,27.5981836 1.25,27.3413672 1.25,27.0703125 L1.25,11.6626172 L9.9629375,19.8310547 L1.43325,27.8276953 Z M3.375,11.9974805 L1.48075,10.2216797 L3.375,8.44582031 L3.375,11.9974805 Z M3.125,28.8281836 C2.8359375,28.8281836 2.5619375,28.7663672 2.3171875,28.6563281 L10.846875,20.6596875 L15.5299375,25.0500586 C15.6471875,25.1599219 15.806125,25.2216797 15.971875,25.2216797 C16.137625,25.2216797 16.2965625,25.1599219 16.4138125,25.0500586 L21.125,20.6333789 L29.682875,28.6563867 C29.4380625,28.7664258 29.164125,28.8281836 28.875,28.8281836 L3.125,28.8281836 L3.125,28.8281836 Z" id="XMLID_1322_" fill="#000000" fill-rule="nonzero"></path>
        <path d="M9.81741653,7.37356966 C9.00246349,8.84484876 8.78807805,10.5410185 9.21390557,12.1495716 C9.58272784,13.5429626 10.3789995,14.7450056 11.5168222,15.6257677 C12.6122964,16.4738227 13.9768787,16.961802 15.3590612,16.9997613 C15.3647677,17 15.3703541,17 15.3759405,17 C15.7000115,17 15.9670773,16.7435363 15.9760876,16.4196293 C15.985218,16.0901717 15.7238588,15.8156236 15.3922191,15.8065516 C13.0386645,15.7419134 10.9759029,14.1132467 10.3756957,11.846017 C9.65288817,9.11527858 11.2093902,6.30480187 13.9192127,5.44767481 C15.2939466,5.01281458 16.7533174,5.14089721 18.0284573,5.80816833 C19.3010744,6.47406671 20.2314796,7.59314841 20.649318,8.95997988 C20.9154827,9.95873792 20.8291639,10.8846214 20.3613483,12.0534798 C20.2279355,12.3866976 19.8137613,13.1618183 18.8502582,13.1618183 C18.6978637,13.1618183 18.5436672,13.0916295 18.4160211,12.9642034 C18.2448251,12.7932674 18.1473935,12.5519039 18.148655,12.2990809 L18.148655,7.364617 C18.148655,7.0349803 17.879667,6.76777343 17.5479672,6.76777343 C17.2162074,6.76777343 16.9472795,7.0349803 16.9472795,7.364617 L16.9472795,7.55471168 C16.4783827,7.16634557 15.8959558,6.94461818 15.2434288,6.94461818 C13.7263318,6.94461818 12.1570952,8.25140719 12.1570952,10.438242 C12.1570952,11.4020847 12.4645272,12.3048106 13.0227463,12.9800795 C13.5885942,13.6647187 14.3750145,14.0573224 15.1802364,14.0573224 C15.9350005,14.0573224 16.6148589,13.7261936 17.1324715,13.1741133 C17.2366308,13.4086728 17.3821774,13.6241334 17.5644261,13.806111 C17.9191922,14.1603376 18.3758351,14.3554458 18.8502582,14.3554458 C20.2383274,14.3554458 21.1176141,13.3941695 21.4776663,12.4945472 C22.0423128,11.0837881 22.1441294,9.89589029 21.807564,8.64287689 C21.8058821,8.63666972 21.8040801,8.63046254 21.8022179,8.62431505 C21.2921139,6.94479723 20.1506871,5.56955027 18.5882382,4.75199394 C17.0261498,3.93455698 15.2385632,3.7776468 13.5547754,4.31021032 C11.959469,4.81484157 10.6321894,5.90270835 9.81741653,7.37356966 L9.81741653,7.37356966 Z M15.1802965,12.8636353 C14.1757664,12.8636353 13.3585308,11.7755894 13.3585308,10.4381824 C13.3585308,8.99853598 14.316928,8.13824565 15.2434888,8.13824565 C16.2417718,8.13824565 16.93899,9.07660312 16.93899,10.420098 C16.9389299,11.7674724 16.1499867,12.8636353 15.1802965,12.8636353 L15.1802965,12.8636353 Z" id="XMLID_1555_" fill="#000000" fill-rule="nonzero"></path>
    </g>
</svg>