<?xml version="1.0" encoding="UTF-8"?>
<svg width="76px" height="77px" viewBox="0 0 76 77" version="1.1" xmlns="http://www.w3.org/2000/svg" xmlns:xlink="http://www.w3.org/1999/xlink">
    <title>identify</title>
    <defs>
        <filter id="filter-1">
            <feColorMatrix in="SourceGraphic" type="matrix" values="0 0 0 0 0.105882 0 0 0 0 0.635294 0 0 0 0 0.756863 0 0 0 1.000000 0"></feColorMatrix>
        </filter>
        <polygon id="path-2" points="0 0 76.0000306 0 76.0000306 76 0 76"></polygon>
    </defs>
    <g id="ESG-Homepage" stroke="none" stroke-width="1" fill="none" fill-rule="evenodd">
        <g id="ESG-HOMEPAGE" transform="translate(-259.000000, -3462.000000)">
            <g id="Benefit" transform="translate(176.000000, 2993.358586)">
                <g id="Point-5" transform="translate(6.892025, 432.284045)">
                    <g id="identify" transform="translate(76.107959, 36.857369)" filter="url(#filter-1)">
                        <g>
                            <g id="Group-3">
                                <mask id="mask-3" fill="white">
                                    <use xlink:href="#path-2"></use>
                                </mask>
                                <g id="Clip-2"></g>
                                <path d="M73.5484168,40.4516292 C73.5484168,42.4789607 71.8984806,44.1290501 69.8709959,44.1290501 L69.8709959,25.7419459 L67.419382,25.7419459 L67.419382,71.0968029 C67.419382,72.4488679 66.3198332,73.5484168 64.9677681,73.5484168 C63.6157031,73.5484168 62.5161542,72.4488679 62.5161542,71.0968029 L62.5161542,40.4516292 L60.0645403,40.4516292 L60.0645403,71.0968029 C60.0645403,72.4488679 58.9649915,73.5484168 57.6129265,73.5484168 C56.2608614,73.5484168 55.1613126,72.4488679 55.1613126,71.0968029 L55.1613126,43.2575013 C58.2221525,39.4697579 60.0645403,34.6584656 60.0645403,29.4193667 C60.0645403,25.1131069 58.8056366,21.1034924 56.6629261,17.7043297 C57.7551201,17.3488457 58.8926689,17.1612972 60.0645403,17.1612972 L62.5161542,17.1612972 C68.5998341,17.1612972 73.5484168,22.1111057 73.5484168,28.1935598 L73.5484168,40.4516292 Z M38.0000153,49.0322778 C27.1859464,49.0322778 18.3871042,40.2334356 18.3871042,29.4193667 C18.3871042,18.6052978 27.1859464,9.80645557 38.0000153,9.80645557 C48.8140842,9.80645557 57.6129265,18.6052978 57.6129265,29.4193667 C57.6129265,40.2334356 48.8140842,49.0322778 38.0000153,49.0322778 L38.0000153,49.0322778 Z M39.2258223,53.9355056 L36.7742084,53.9355056 L36.7742084,51.4213756 C37.1824021,51.4446659 37.5856926,51.4838917 38.0000153,51.4838917 C38.4143381,51.4838917 38.8176286,51.4446659 39.2258223,51.4213756 L39.2258223,53.9355056 Z M41.6774362,69.8709959 C41.6774362,71.8983274 40.0275,73.5484168 38.0000153,73.5484168 C35.9725306,73.5484168 34.3225945,71.8983274 34.3225945,69.8709959 L34.3225945,56.3871195 L41.6774362,56.3871195 L41.6774362,69.8709959 Z M18.3871042,73.5484168 C17.0350391,73.5484168 15.9354903,72.4488679 15.9354903,71.0968029 L15.9354903,40.4516292 L13.4838764,40.4516292 L13.4838764,71.0968029 C13.4838764,72.4488679 12.3843276,73.5484168 11.0322625,73.5484168 C9.68019745,73.5484168 8.58064862,72.4488679 8.58064862,71.0968029 L8.58064862,25.7419459 L6.12903473,25.7419459 L6.12903473,44.1290501 C4.10155004,44.1290501 2.45161389,42.4789607 2.45161389,40.4516292 L2.45161389,28.1935598 C2.45161389,22.1111057 7.40019653,17.1612972 13.4838764,17.1612972 L15.9354903,17.1612972 C17.1073617,17.1612972 18.2449106,17.3488457 19.3358788,17.7043297 C17.194394,21.1034924 15.9354903,25.1131069 15.9354903,29.4193667 C15.9354903,34.6572398 17.7778781,39.468532 20.8387181,43.2575013 L20.8387181,71.0968029 C20.8387181,72.4488679 19.7391692,73.5484168 18.3871042,73.5484168 L18.3871042,73.5484168 Z M8.58064862,8.58064862 C8.58064862,5.20109887 11.3301336,2.45161389 14.7096834,2.45161389 C18.0892331,2.45161389 20.8387181,5.20109887 20.8387181,8.58064862 C20.8387181,11.9601984 18.0892331,14.7096834 14.7096834,14.7096834 C11.3301336,14.7096834 8.58064862,11.9601984 8.58064862,8.58064862 L8.58064862,8.58064862 Z M55.1613126,8.58064862 C55.1613126,5.20109887 57.9107975,2.45161389 61.2903473,2.45161389 C64.669897,2.45161389 67.419382,5.20109887 67.419382,8.58064862 C67.419382,11.9601984 64.669897,14.7096834 61.2903473,14.7096834 C57.9107975,14.7096834 55.1613126,11.9601984 55.1613126,8.58064862 L55.1613126,8.58064862 Z M66.5662204,15.3336191 C68.5740922,13.7609088 69.8709959,11.3227788 69.8709959,8.58064862 C69.8709959,3.84903381 66.0207363,0 61.2903473,0 C56.5599583,0 52.7096987,3.84903381 52.7096987,8.58064862 C52.7096987,11.3264562 54.0115056,13.7682636 56.0242807,15.3397481 C55.7460225,15.4267804 55.4726675,15.5272966 55.2005384,15.632716 C51.1529239,10.5934236 44.9515665,7.35484168 38.0000153,7.35484168 C31.0484641,7.35484168 24.8471068,10.5946494 20.7994923,15.6339418 C20.5273631,15.5285224 20.2527824,15.4280062 19.97575,15.3409739 C21.988525,13.7694894 23.290332,11.3264562 23.290332,8.58064862 C23.290332,3.84903381 19.4400724,0 14.7096834,0 C9.97929435,0 6.12903473,3.84903381 6.12903473,8.58064862 C6.12903473,11.3227788 7.42593848,13.7609088 9.43381026,15.3336191 C3.9716145,17.0571037 0,22.1699444 0,28.1935598 L0,40.4516292 C0,43.831179 2.74948498,46.5806639 6.12903473,46.5806639 L6.12903473,71.0968029 C6.12903473,73.8007798 8.32813239,76.0000306 11.0322625,76.0000306 C12.5044567,76.0000306 13.8099411,75.3356433 14.7096834,74.3058122 C15.6094256,75.3356433 16.91491,76.0000306 18.3871042,76.0000306 C21.0912343,76.0000306 23.290332,73.8007798 23.290332,71.0968029 L23.290332,45.8180588 C26.331559,48.5480841 30.1229799,50.4419558 34.3225945,51.151698 L34.3225945,53.9355056 L31.8709806,53.9355056 L31.8709806,69.8709959 C31.8709806,73.2505457 34.6204656,76.0000306 38.0000153,76.0000306 C41.3795651,76.0000306 44.1290501,73.2505457 44.1290501,69.8709959 L44.1290501,53.9355056 L41.6774362,53.9355056 L41.6774362,51.151698 C45.8770508,50.4419558 49.6684716,48.5480841 52.7096987,45.8180588 L52.7096987,71.0968029 C52.7096987,73.8007798 54.9087963,76.0000306 57.6129265,76.0000306 C59.0851206,76.0000306 60.390605,75.3356433 61.2903473,74.3058122 C62.1900896,75.3356433 63.495574,76.0000306 64.9677681,76.0000306 C67.6718983,76.0000306 69.8709959,73.8007798 69.8709959,71.0968029 L69.8709959,46.5806639 C73.2505457,46.5806639 76.0000306,43.831179 76.0000306,40.4516292 L76.0000306,28.1935598 C76.0000306,22.1699444 72.0284161,17.0571037 66.5662204,15.3336191 L66.5662204,15.3336191 Z" id="Fill-1" fill="#000000" mask="url(#mask-3)"></path>
                            </g>
                            <path d="M32.5525752,21.2640578 L31.1907037,19.2267666 C30.4368324,19.7305733 29.7368967,20.3201864 29.1129609,20.9796706 L30.890381,22.6651551 C31.3892844,22.1392839 31.9482524,21.6673483 32.5525752,21.2640578" id="Fill-4" fill="#000000"></path>
                            <path d="M29.5725926,24.3984461 L27.467882,23.1432198 C27.0020754,23.922833 26.6245269,24.7551559 26.3425913,25.6168982 L28.6716245,26.3781243 C28.8971729,25.687995 29.1999473,25.0223819 29.5725926,24.3984461" id="Fill-6" fill="#000000"></path>
                            <path d="M38.0000153,44.1290501 C29.8888508,44.1290501 23.290332,37.5305313 23.290332,29.4193667 C23.290332,21.3082021 29.8888508,14.7096834 38.0000153,14.7096834 C46.1111799,14.7096834 52.7096987,21.3082021 52.7096987,29.4193667 C52.7096987,37.5305313 46.1111799,44.1290501 38.0000153,44.1290501 M38.0000153,12.2580695 C28.5367857,12.2580695 20.8387181,19.9561371 20.8387181,29.4193667 C20.8387181,38.8825963 28.5367857,46.5806639 38.0000153,46.5806639 C47.4632449,46.5806639 55.1613126,38.8825963 55.1613126,29.4193667 C55.1613126,19.9561371 47.4632449,12.2580695 38.0000153,12.2580695" id="Fill-8" fill="#000000"></path>
                            <polygon id="Fill-10" fill="#000000" points="46.5806639 35.5484014 46.5806639 23.290332 44.1290501 23.290332 44.1290501 35.5484014 41.6774362 35.5484014 41.6774362 30.6451736 39.2258223 30.6451736 39.2258223 35.5484014 36.7742084 35.5484014 36.7742084 25.7419459 34.3225945 25.7419459 34.3225945 35.5484014 31.8709806 35.5484014 31.8709806 28.1935598 29.4193667 28.1935598 29.4193667 35.5484014 26.9677528 35.5484014 26.9677528 38.0000153 49.0322778 38.0000153 49.0322778 35.5484014"></polygon>
                        </g>
                    </g>
                </g>
            </g>
        </g>
    </g>
</svg>