<?xml version="1.0" encoding="UTF-8"?>
<svg width="77px" height="80px" viewBox="0 0 77 80" version="1.1" xmlns="http://www.w3.org/2000/svg" xmlns:xlink="http://www.w3.org/1999/xlink">
    <title>learn</title>
    <defs>
        <filter id="filter-1">
            <feColorMatrix in="SourceGraphic" type="matrix" values="0 0 0 0 0.133333 0 0 0 0 0.545098 0 0 0 0 0.756863 0 0 0 1.000000 0"></feColorMatrix>
        </filter>
        <polygon id="path-2" points="0 0 36.5296838 0 36.5296838 36.5295891 0 36.5295891"></polygon>
        <polygon id="path-4" points="0 78.262025 76 78.262025 76 0 0 0"></polygon>
    </defs>
    <g id="ESG-Homepage" stroke="none" stroke-width="1" fill="none" fill-rule="evenodd">
        <g id="ESG-HOMEPAGE" transform="translate(-1103.000000, -3150.000000)">
            <g id="Benefit" transform="translate(176.000000, 2993.358586)">
                <g id="Point-4" transform="translate(853.392025, 118.284045)">
                    <g id="learn" transform="translate(74.107975, 39.226357)" filter="url(#filter-1)">
                        <g>
                            <path d="M35.7977129,76.0285435 L37.5376229,70.2316312 C38.1439958,68.2103882 39.8100618,66.719465 41.8871612,66.3431446 L46.7226814,65.4642747 L49.4441802,73.6298756 L54.3978823,68.6738066 L59.3528468,73.6287711 L62.0743456,65.4631702 L66.909708,66.3420401 C68.9857029,66.719465 70.6530312,68.2103882 71.2594041,70.2305267 L72.9982095,76.0285435 L35.7977129,76.0285435 Z M59.1439377,64.9304835 L59.854134,65.0600261 L58.375676,69.4946112 L56.0964523,67.216492 L59.1439377,64.9304835 Z M52.6983657,67.2153875 L50.419142,69.4935067 L48.9403684,65.0590794 L49.651827,64.9304835 L52.6983657,67.2153875 Z M51.1425923,63.2576327 C52.1734105,63.5725742 53.2656076,63.7445614 54.3978823,63.7445614 C55.5303149,63.7445614 56.622512,63.5725742 57.6531723,63.2576327 L54.3978823,65.6987452 L51.1425923,63.2576327 Z M45.4640197,52.5772331 L45.4640197,46.9422095 C48.221336,46.6865956 50.7798415,45.4905752 52.7630581,43.5083054 L53.1974439,43.0739196 C55.436432,45.545327 58.6615848,46.9936479 62.0240118,46.9936479 L63.331745,46.9936479 L63.331745,52.5772331 C63.331745,57.5031649 59.3238141,61.5110957 54.3978823,61.5110957 C49.4721084,61.5110957 45.4640197,57.5031649 45.4640197,52.5772331 L45.4640197,52.5772331 Z M43.2307119,44.7601822 L43.2307119,46.0354114 C42.8330903,46.1392348 42.4600834,46.2957589 42.1139001,46.4978832 L42.1139001,41.7594016 C42.1139001,35.4097637 47.2799827,30.2427344 53.6307252,30.2427344 C56.7061387,30.2427344 59.5996246,31.4409638 61.7750249,33.6163641 L62.7599273,34.6023709 L63.0605102,34.6760572 C65.1933082,35.2087439 66.6820223,37.1162229 66.6820223,39.3138711 L66.6820223,46.4978832 C66.3358391,46.2957589 65.9626744,46.1381303 65.5652106,46.0354114 L65.5652106,44.7601822 L62.0240118,44.7601822 C58.9978275,44.7601822 56.1054461,43.3151749 54.2907454,40.8952058 L53.4030395,39.7091259 L51.1839324,41.9293375 C49.3570821,43.7550832 46.9292237,44.7601822 44.3473658,44.7601822 L43.2307119,44.7601822 Z M43.2307119,52.2668674 C42.5662736,51.8793441 42.1139001,51.1669388 42.1139001,50.3439252 C42.1139001,49.5207539 42.5662736,48.8083486 43.2307119,48.4208253 L43.2307119,52.2668674 Z M65.5652106,52.2668674 L65.5652106,48.4208253 C66.2296489,48.8083486 66.6820223,49.5207539 66.6820223,50.3439252 C66.6820223,51.1669388 66.2296489,51.8793441 65.5652106,52.2668674 L65.5652106,52.2668674 Z M73.3989868,69.5894408 C72.5491496,66.7597005 70.2162786,64.6736073 67.3095386,64.1453387 L59.9816254,62.8120441 L59.9816254,62.2335994 C62.7220585,60.6421663 64.7287852,57.9274523 65.3542503,54.7179204 C67.3843293,54.2980509 68.9153302,52.4967621 68.9153302,50.3439252 L68.9153302,39.3138711 C68.9153302,36.1971175 66.8740483,33.4789322 63.9123987,32.5945398 L63.3541506,32.0361339 C60.7565141,29.4386552 57.3036756,28.0092687 53.6307252,28.0092687 C46.0492493,28.0092687 39.8804345,34.176979 39.8804345,41.7594016 L39.8804345,50.3439252 C39.8804345,52.4967621 41.4115931,54.2980509 43.4416722,54.7179204 C44.0682418,57.9274523 46.0737062,60.6434286 48.8142971,62.2335994 L48.8142971,62.8120441 L41.4862261,64.1443919 C38.5794861,64.6736073 36.2466151,66.7597005 35.3967778,69.5894408 L32.7959856,78.2620092 L75.9999369,78.2620092 L73.3989868,69.5894408 Z" id="Fill-1" fill="#000000"></path>
                            <g id="Group-5" transform="translate(0.000000, 0.000063)">
                                <mask id="mask-3" fill="white">
                                    <use xlink:href="#path-2"></use>
                                </mask>
                                <g id="Clip-4"></g>
                                <path d="M30.8141891,27.5714274 L27.5715221,30.8156723 L24.7124336,29.1590735 L24.0295343,29.5088859 C23.4029647,29.8306122 22.7650345,30.0975867 22.1356248,30.3012889 L21.4063364,30.5359172 L20.5577614,33.7197299 L15.972017,33.7197299 L15.1232843,30.5359172 L14.3941536,30.3012889 C13.7647439,30.0961666 13.1268137,29.8306122 12.5002442,29.5088859 L11.8173449,29.1590735 L8.95825638,30.8156723 L5.71558929,27.5714274 L7.37061022,24.713759 L7.0207979,24.0308597 C6.69607361,23.4000299 6.43067699,22.7622575 6.22965719,22.1369502 L5.99518669,21.4063995 L2.80995383,20.5576668 L2.80995383,15.9717645 L5.99518669,15.1231896 L6.22965719,14.3926389 C6.43067699,13.7687517 6.69607361,13.1309793 7.0207979,12.4987294 L7.37061022,11.8158301 L5.71558929,8.95816171 L8.95825638,5.71407454 L11.8173449,7.37051555 L12.5002442,7.02070323 C13.1268137,6.69897688 13.7647439,6.43200239 14.3941536,6.22830023 L15.1232843,5.99367194 L15.972017,2.80985915 L20.5577614,2.80985915 L21.4063364,5.99367194 L22.1356248,6.22830023 C22.7650345,6.43342247 23.4029647,6.69897688 24.0295343,7.02070323 L24.7124336,7.37051555 L27.5715221,5.71407454 L30.8141891,8.95816171 L29.1591682,11.8158301 L29.5089805,12.4987294 C29.833547,13.1295592 30.0991014,13.7674894 30.2999635,14.3926389 L30.5345917,15.1231896 L33.7198246,15.9717645 L33.7198246,20.5576668 L30.5345917,21.4063995 L30.2999635,22.1369502 C30.0991014,22.7608374 29.833547,23.3986098 29.5089805,24.0308597 L29.1591682,24.713759 L30.8141891,27.5714274 Z M36.5296838,22.7171306 L36.5296838,13.8123007 L32.7166191,12.79663 C32.6041174,12.5028318 32.4819908,12.2093493 32.3485035,11.9157089 L34.328091,8.49584773 L28.0336782,2.20159281 L24.6139749,4.18118024 C24.3217546,4.047693 24.0281142,3.92556637 23.7358939,3.81306471 L22.7158052,0 L13.8138154,0 L12.7953046,3.81448479 C12.5015064,3.92682866 12.2092861,4.04911307 11.9170658,4.18260032 L8.49736248,2.20159281 L2.20294977,8.49584773 L4.18269499,11.9157089 C4.04778767,12.2093493 3.92550326,12.5028318 3.81315938,12.79663 L-6.31145363e-05,13.8123007 L-6.31145363e-05,22.7171306 L3.81315938,23.7329591 C3.92550326,24.0265995 4.04778767,24.3203976 4.18269499,24.6138802 L2.20294977,28.0337414 L8.49736248,34.3279963 L11.9170658,32.3484088 C12.2092861,32.4818961 12.5029265,32.6041805 12.7953046,32.7165244 L13.8138154,36.5295891 L22.7158052,36.5295891 L23.7344738,32.7151043 C24.0281142,32.6027604 24.3203345,32.480476 24.6125548,32.3469888 L28.032416,34.326734 L34.3266709,28.0323213 L32.3470834,24.6126179 C32.4805707,24.3189775 32.6041174,24.0251794 32.715199,23.7316968 L36.5296838,22.7171306 Z" id="Fill-3" fill="#000000" mask="url(#mask-3)"></path>
                            </g>
                            <path d="M26.1581036,24.1334681 C27.4281258,22.4277978 28.0998223,20.3991388 28.0998223,18.2649208 C28.0998223,12.8429087 23.6881162,8.42994037 18.2648419,8.42994037 C12.8415676,8.42994037 8.43001927,12.8429087 8.43001927,18.2649208 C8.43001927,23.6866172 12.8415676,28.0997434 18.2648419,28.0997434 C20.4566519,28.0997434 22.5290177,27.3958585 24.2599339,26.0625639 L22.5459009,23.8369876 C21.3094871,24.7881237 19.8300824,25.2898842 18.2648419,25.2898842 C14.391345,25.2898842 11.2398784,22.1384177 11.2398784,18.2649208 C11.2398784,14.3912661 14.391345,11.2399573 18.2648419,11.2399573 C22.1383388,11.2399573 25.2898053,14.3912661 25.2898053,18.2649208 C25.2898053,19.7892946 24.8106082,21.2377732 23.9044413,22.4544637 L26.1581036,24.1334681 Z" id="Fill-6" fill="#000000"></path>
                            <path d="M72.5976058,19.9353416 L70.9654639,21.5674836 L70.9654639,17.040909 C70.9654639,10.080638 65.3029855,4.41800176 58.3425566,4.41800176 L50.7688123,4.41800176 L50.7688123,6.94258321 L58.3425566,6.94258321 C63.910521,6.94258321 68.4408824,11.4729446 68.4408824,17.040909 L68.4408824,21.5674836 L66.8087405,19.9353416 L65.0238614,21.7202207 L69.7031732,26.3995325 L74.3826427,21.7202207 L72.5976058,19.9353416 Z" id="Fill-8" fill="#000000"></path>
                            <path d="M8.79767722,58.2231913 L8.79767722,53.6966167 L10.4298191,55.3287586 L12.2146982,53.5438796 L7.53538649,48.86441 L2.85607477,53.5438796 L4.64095386,55.3287586 L6.27309577,53.6966167 L6.27309577,58.2231913 C6.27309577,65.1833045 11.935732,70.8460985 18.896003,70.8460985 L18.896003,68.3215171 C13.3280386,68.3215171 8.79767722,63.7911557 8.79767722,58.2231913" id="Fill-10" fill="#000000"></path>
                            <mask id="mask-5" fill="white">
                                <use xlink:href="#path-4"></use>
                            </mask>
                            <g id="Clip-13"></g>
                            <polygon id="Fill-12" fill="#000000" mask="url(#mask-5)" points="45.7196967 6.94259899 48.2442782 6.94259899 48.2442782 4.41801754 45.7196967 4.41801754"></polygon>
                            <polygon id="Fill-14" fill="#000000" mask="url(#mask-5)" points="40.6705338 6.94259899 43.1951153 6.94259899 43.1951153 4.41801754 40.6705338 4.41801754"></polygon>
                            <polygon id="Fill-15" fill="#000000" mask="url(#mask-5)" points="21.4206003 70.846067 23.9451817 70.846067 23.9451817 68.3214855 21.4206003 68.3214855"></polygon>
                            <polygon id="Fill-16" fill="#000000" mask="url(#mask-5)" points="26.4697632 70.846067 28.9943446 70.846067 28.9943446 68.3214855 26.4697632 68.3214855"></polygon>
                        </g>
                    </g>
                </g>
            </g>
        </g>
    </g>
</svg>