<?xml version="1.0" encoding="UTF-8"?>
<svg width="44px" height="60px" viewBox="0 0 44 60" version="1.1" xmlns="http://www.w3.org/2000/svg" xmlns:xlink="http://www.w3.org/1999/xlink">
    <title>icons/location</title>
    <g id="icons/location" stroke="none" stroke-width="1" fill="none" fill-rule="evenodd">
        <path d="M22,0 C9.84975,0 0,9.84975 0,22 C0,33.822 20.362,58.589 21.229,59.637 C21.419,59.866875 21.70175,60 22,60 C22.29825,60 22.581,59.866875 22.771,59.637 C23.638,58.589 44,33.822 44,22 C44,9.84975 34.15025,0 22,0 Z M22,57.411 C18.237,52.714 2,31.872 2,22 C2.012625,10.9595 10.959625,2.012625 22,2 C33.0405,2.012625 41.987375,10.9595 42,22 C42,31.87 25.763,52.713 22,57.411 Z" id="Shape" fill="#000000" fill-rule="nonzero"></path>
        <path d="M35.6104861,18.2077486 L22.6100249,8.20756628 C22.2503871,7.93081124 21.7496194,7.93081124 21.3899816,8.20756628 L8.38952043,18.2077486 C7.95212992,18.5448797 7.87087703,19.1728912 8.20801399,19.6102741 C8.39727071,19.8557786 8.68953108,19.9996562 8.99954207,19.9997812 L11.9996485,19.9997812 L11.9996485,30.9999818 C11.9996485,31.5522418 12.4474144,32 12.999684,32 L31.0003225,32 C31.5525921,32 32.000358,31.5522418 32.000358,30.9999818 L32.000358,19.9997812 L35.0004644,19.9997812 C35.552734,19.9995312 36,19.5515231 36,18.999263 C36,18.6892574 35.8559948,18.397002 35.6104861,18.2077486 Z M24.0000742,29.9999635 L19.9999323,29.9999635 L19.9999323,23.9998542 L24.0000742,23.9998542 L24.0000742,29.9999635 Z M31.0003225,17.9997448 C30.4480529,17.9997448 30.0002871,18.4475029 30.0002871,18.999763 L30.0002871,29.9999635 L26.0001452,29.9999635 L26.0001452,22.9998359 C26.0001452,22.4475759 25.5523793,21.9998177 25.0001097,21.9998177 L18.9998968,21.9998177 C18.4476272,21.9998177 17.9998614,22.4475759 17.9998614,22.9998359 L17.9998614,29.9999635 L13.9997195,29.9999635 L13.9997195,18.999763 C13.9997195,18.4475029 13.5519536,17.9997448 12.999684,17.9997448 L11.9396464,17.9997448 L22.0000033,10.2616037 L32.0603601,17.9997448 L31.0003225,17.9997448 Z" id="Shape" fill="#000000" fill-rule="nonzero"></path>
    </g>
</svg>