<?xml version="1.0" encoding="UTF-8"?>
<svg width="77px" height="76px" viewBox="0 0 77 76" version="1.1" xmlns="http://www.w3.org/2000/svg" xmlns:xlink="http://www.w3.org/1999/xlink">
    <title>report</title>
    <defs>
        <filter id="filter-1">
            <feColorMatrix in="SourceGraphic" type="matrix" values="0 0 0 0 0.200000 0 0 0 0 0.709804 0 0 0 0 0.701961 0 0 0 1.000000 0"></feColorMatrix>
        </filter>
        <polygon id="path-2" points="0 0 76 0 76 76 0 76"></polygon>
        <polygon id="path-4" points="0 76 76 76 76 0 0 0"></polygon>
    </defs>
    <g id="ESG-Homepage" stroke="none" stroke-width="1" fill="none" fill-rule="evenodd">
        <g id="ESG-HOMEPAGE" transform="translate(-256.000000, -3151.000000)">
            <g id="Benefit" transform="translate(176.000000, 2993.358586)">
                <g id="Point-1-" transform="translate(6.892025, 118.284045)">
                    <g id="report" transform="translate(73.607975, 39.357369)" filter="url(#filter-1)">
                        <g>
                            <g id="Group-3">
                                <mask id="mask-3" fill="white">
                                    <use xlink:href="#path-2"></use>
                                </mask>
                                <g id="Clip-2"></g>
                                <path d="M73.4663072,72.2000301 C73.4663072,72.899547 72.8990767,73.4666973 72.1994608,73.4666973 L29.1266832,73.4666973 C28.4270673,73.4666973 27.8598368,72.899547 27.8598368,72.2000301 L27.8598368,64.5366936 C42.0272968,63.8523766 53.170161,52.1817801 53.1967648,38.0000158 C53.1967648,37.3004989 52.6295343,36.7333486 51.9299184,36.7333486 L27.8598368,36.7333486 L27.8598368,3.80000158 C27.8598368,3.10048463 28.4270673,2.53333439 29.1266832,2.53333439 L59.5309968,2.53333439 L59.5309968,12.6666719 C59.5371727,14.7626895 61.2352219,16.4603402 63.331536,16.4666735 L73.4663072,16.4666735 L73.4663072,72.2000301 Z M10.5167096,55.8600233 L27.1123974,39.266683 L50.6250666,39.266683 C49.9515794,52.5153885 38.6638196,62.7095261 25.4132397,62.0361342 C19.8844053,61.7549341 14.6220837,59.5734165 10.5167096,55.8600233 L10.5167096,55.8600233 Z M2.52290877,38.0000158 C2.5400112,25.2081022 12.5511065,14.6591394 25.326144,13.9713392 L25.326144,37.4806823 L8.73045613,54.0740225 C4.73545601,49.6734624 2.52259206,43.94306 2.52290877,38.0000158 L2.52290877,38.0000158 Z M62.0646896,4.31933513 L71.6800538,13.9333391 L63.331536,13.9333391 C62.6319201,13.9333391 62.0646896,13.3661889 62.0646896,12.6666719 L62.0646896,4.31933513 Z M75.6326145,14.3006726 L61.6973041,0.367333486 C61.4556532,0.133950056 61.1337158,0.00253333439 60.7978432,0 L29.1266832,0 C27.0303691,0.00633333597 25.3324782,1.70382571 25.326144,3.80000158 L25.326144,11.4633381 C10.6682561,12.1501884 -0.657350762,24.5879102 0.029596699,39.2437247 C0.671571112,52.9379804 11.6299508,63.89481 25.326144,64.5366936 L25.326144,72.2000301 C25.3324782,74.2960476 27.0303691,75.9936983 29.1266832,76.0000317 L72.1994608,76.0000317 C74.2957749,75.9936983 75.9938241,74.2960476 76,72.2000301 L76,15.2000063 C75.9974663,14.8641812 75.8658726,14.5421311 75.6326145,14.3006726 L75.6326145,14.3006726 Z" id="Fill-1" fill="#000000" mask="url(#mask-3)"></path>
                            </g>
                            <path d="M32.5454545,31.4545455 L32.5454545,8.58363636 C44.8915455,9.24656818 54.7534318,19.1082955 55.4163636,31.4545455 L32.5454545,31.4545455 Z M31.2727273,6 C30.5698636,6 30,6.56986364 30,7.27272727 L30,32.7272727 C30,33.4301364 30.5698636,34 31.2727273,34 L56.7272727,34 C57.4301364,34 58,33.4301364 58,32.7272727 C57.9837727,17.9728636 46.0271364,6.01606818 31.2727273,6 L31.2727273,6 Z" id="Fill-4" fill="#000000"></path>
                            <path d="M59.5,68.4444444 C54.5601111,68.4444444 50.5555556,64.4398889 50.5555556,59.5 C50.5555556,54.5601111 54.5601111,50.5555556 59.5,50.5555556 C64.4398889,50.5555556 68.4444444,54.5601111 68.4444444,59.5 C68.4388542,64.4374931 64.4374931,68.4388542 59.5,68.4444444 M59.5,48 C53.1486458,48 48,53.1486458 48,59.5 C48,65.8513542 53.1486458,71 59.5,71 C65.8513542,71 71,65.8513542 71,59.5 C70.9900972,53.1527986 65.8472014,48.0099028 59.5,48" id="Fill-6" fill="#000000"></path>
                            <path d="M56.6275206,61.8678661 L53.7651239,58.8926126 L52,60.7274928 L55.7449587,64.6201053 C56.2324275,65.1266316 57.0226138,65.1266316 57.5100826,64.6201053 L65,56.8348802 L63.2348761,55 L56.6275206,61.8678661 Z" id="Fill-8" fill="#000000"></path>
                            <mask id="mask-5" fill="white">
                                <use xlink:href="#path-4"></use>
                            </mask>
                            <g id="Clip-11"></g>
                            <polygon id="Fill-10" fill="#000000" mask="url(#mask-5)" points="61 24 71 24 71 21 61 21"></polygon>
                            <polygon id="Fill-12" fill="#000000" mask="url(#mask-5)" points="61 32 71 32 71 29 61 29"></polygon>
                            <polygon id="Fill-13" fill="#000000" mask="url(#mask-5)" points="61 40 71 40 71 37 61 37"></polygon>
                        </g>
                    </g>
                </g>
            </g>
        </g>
    </g>
</svg>