<?xml version="1.0" encoding="UTF-8"?>
<svg width="76px" height="68px" viewBox="0 0 76 68" version="1.1" xmlns="http://www.w3.org/2000/svg" xmlns:xlink="http://www.w3.org/1999/xlink">
    <title>icons/risk-managment</title>
    <g id="icons/risk-managment" stroke="none" stroke-width="1" fill="none" fill-rule="evenodd">
        <path d="M75.1367035,58.378477 L43.5146334,3.20707465 C42.3635714,1.19880301 40.3020498,0 37.9999258,0 C35.6978018,0 33.6362802,1.19895252 32.4852182,3.20707465 L0.863296496,58.378477 C-0.287765499,60.3867487 -0.287765499,62.7846537 0.863296496,64.7927758 C2.01435849,66.801197 4.07602853,68 6.37800409,68 L69.6219959,68 C71.9241199,68 73.9856415,66.8010475 75.1367035,64.7927758 C76.2877655,62.7846537 76.2877655,60.3867487 75.1367035,58.378477 Z M73.208619,63.6715706 C72.4599463,64.9777246 71.1191929,65.75744 69.6219959,65.75744 L6.37800409,65.75744 C4.88080714,65.75744 3.54005369,64.9777246 2.791381,63.6715706 C2.04285674,62.3655661 2.04285674,60.8059858 2.791381,59.4999813 L34.4134511,4.32842942 C35.1619754,3.0224249 36.5028773,2.24270954 38.0000742,2.24270954 C39.4972712,2.24270954 40.8380246,3.0224249 41.5866973,4.32842942 L73.208619,59.4999813 L73.208619,59.4999813 C73.9571433,60.8059858 73.9571433,62.3654165 73.208619,63.6715706 Z" id="Shape" fill="#000000" fill-rule="nonzero"></path>
        <path d="M44.0108898,17.5683696 C43.7133376,17.0247356 43.0542973,16.8386758 42.5389328,17.1524623 C42.0235682,17.4662489 41.8469908,18.1612458 42.1445431,18.7047283 L64.0560859,58.7272826 L46.53484,58.7272826 C45.9397355,58.7272826 45.4572726,59.2360682 45.4572726,59.8636413 C45.4572726,60.4912143 45.9397355,61 46.53484,61 L65.9224326,61 C66.3074834,61 66.6630806,60.7833343 66.855606,60.4318206 C67.0481313,60.080307 67.0481313,59.6469755 66.855606,59.2954619 L44.0108898,17.5683696 Z" id="Path" fill="#000000" fill-rule="nonzero"></path>
        <path d="M29.6025421,58.7451499 L11.9635517,58.7451499 L37.7179587,12.3822751 L38.9756964,14.6465956 C39.2752335,15.1858054 39.9386699,15.3705528 40.4574722,15.0592332 C40.9762746,14.7479135 41.1540298,14.0583804 40.8544927,13.5191706 L38.6573568,9.56371252 C38.4635472,9.21496238 38.1055779,9 37.7179587,9 C37.3303394,9 36.9722255,9.21496238 36.7785605,9.56371252 L9.14535722,59.3088624 C8.95154759,59.6576126 8.95154759,60.0875373 9.14535722,60.4362875 C9.33916685,60.7850376 9.69713613,61 10.0847554,61 L29.6025421,61 C30.2016163,61 30.6872974,60.4952142 30.6872974,59.872575 C30.6872974,59.2499357 30.2016163,58.7451499 29.6025421,58.7451499 Z" id="Path" fill="#000000" fill-rule="nonzero"></path>
        <path d="M38.5,53 C36.0186383,53 34,55.0187489 34,57.4999287 C34,59.9812511 36.0186383,62 38.5,62 C40.9813617,62 43,59.9812511 43,57.4999287 C43,55.0187489 40.9813617,53 38.5,53 Z M38.5,59.8604371 C37.1984119,59.8604371 36.1395968,58.8014961 36.1395968,57.4999287 C36.1395968,56.1983613 37.1984119,55.1395629 38.5,55.1395629 C39.8015881,55.1395629 40.8604032,56.1983613 40.8604032,57.4999287 C40.8604032,58.8014961 39.8015881,59.8604371 38.5,59.8604371 Z" id="Shape" fill="#000000" fill-rule="nonzero"></path>
        <path d="M36.2439933,25 C35.6312201,25 35.0378266,25.2529019 34.6161021,25.6937229 C34.1943776,26.1346873 33.9709331,26.7355982 34.0030397,27.3426775 L35.0402852,46.8911456 C35.1030522,48.0736017 36.0873652,49 37.2812389,49 L39.718737,49 C40.9126107,49 41.8969237,48.0736017 41.9596907,46.8911456 L42.9969362,27.3426775 C43.0291874,26.7357417 42.8055982,26.1346873 42.3838738,25.6937229 C41.9620046,25.2527584 41.3687557,25 40.7559825,25 L36.2439933,25 Z M40.8304641,27.2296391 L39.7932185,46.7781072 C39.7911938,46.8174124 39.7583641,46.8482541 39.7185924,46.8482541 L37.2810943,46.8482541 C37.2413226,46.8482541 37.2086375,46.8174124 37.2064681,46.7781072 L36.1692226,27.2296391 C36.1687887,27.2217494 36.1674871,27.1979367 36.1896146,27.1748413 C36.2117421,27.1517459 36.2358944,27.1517459 36.2438487,27.1517459 L40.7558379,27.1517459 C40.7637922,27.1517459 40.7879445,27.1517459 40.810072,27.1748413 C40.8321995,27.1979367 40.8308979,27.2217494 40.8304641,27.2296391 Z" id="Shape" fill="#000000" fill-rule="nonzero"></path>
    </g>
</svg>