<?xml version="1.0" encoding="UTF-8"?>
<svg width="77px" height="78px" viewBox="0 0 77 78" version="1.1" xmlns="http://www.w3.org/2000/svg" xmlns:xlink="http://www.w3.org/1999/xlink">
    <title>score</title>
    <defs>
        <filter id="filter-1">
            <feColorMatrix in="SourceGraphic" type="matrix" values="0 0 0 0 0.235294 0 0 0 0 0.482353 0 0 0 0 0.772549 0 0 0 1.000000 0"></feColorMatrix>
        </filter>
        <polygon id="path-2" points="0 0 77 0 77 76.9747344 0 76.9747344"></polygon>
    </defs>
    <g id="ESG-Homepage" stroke="none" stroke-width="1" fill="none" fill-rule="evenodd">
        <g id="ESG-HOMEPAGE" transform="translate(-825.000000, -3150.000000)">
            <g id="Benefit" transform="translate(176.000000, 2993.358586)">
                <g id="Point-3" transform="translate(566.892025, 118.284045)">
                    <g id="score" transform="translate(82.107975, 38.785902)" filter="url(#filter-1)">
                        <g>
                            <path d="M41.3956222,14.3799511 C41.3956222,11.601784 43.6561446,9.34186322 46.4343117,9.34186322 C49.2124788,9.34186322 51.4723996,11.601784 51.4723996,14.3799511 C51.4723996,17.1587198 49.2124788,19.4186406 46.4343117,19.4186406 C43.6561446,19.4186406 41.3956222,17.1581182 41.3956222,14.3799511 M53.7270567,14.3799511 C53.7270567,10.358805 50.4554578,7.08720609 46.4343117,7.08720609 C42.412564,7.08720609 39.1409651,10.358805 39.1409651,14.3799511 C39.1409651,18.4016988 42.412564,21.6732977 46.4343117,21.6732977 C50.4554578,21.6732977 53.7270567,18.4016988 53.7270567,14.3799511" id="Fill-1" fill="#000000"></path>
                            <path d="M34.0117856,10.5138578 C34.6345534,10.5138578 35.1391141,10.0092971 35.1391141,9.38652925 C35.1391141,8.76376143 34.6345534,8.25920069 34.0117856,8.25920069 L31.0480363,8.25920069 C30.4252685,8.25920069 29.9207078,8.76376143 29.9207078,9.38652925 C29.9207078,10.0092971 30.4252685,10.5138578 31.0480363,10.5138578 L34.0117856,10.5138578 Z" id="Fill-3" fill="#000000"></path>
                            <path d="M8.76436299,10.5138578 L23.7446286,10.5138578 C24.3673964,10.5138578 24.8719572,10.0092971 24.8719572,9.38652925 C24.8719572,8.76376143 24.3673964,8.25920069 23.7446286,8.25920069 L8.76436299,8.25920069 C8.14159517,8.25920069 7.63703443,8.76376143 7.63703443,9.38652925 C7.63703443,10.0092971 8.14159517,10.5138578 8.76436299,10.5138578" id="Fill-5" fill="#000000"></path>
                            <path d="M8.76436299,20.5007467 L12.6274485,20.5007467 C13.2502163,20.5007467 13.7549274,19.9961859 13.7549274,19.3734181 C13.7549274,18.7506503 13.2502163,18.2460895 12.6274485,18.2460895 L8.76436299,18.2460895 C8.14159517,18.2460895 7.63703443,18.7506503 7.63703443,19.3734181 C7.63703443,19.9961859 8.14159517,20.5007467 8.76436299,20.5007467" id="Fill-7" fill="#000000"></path>
                            <path d="M19.9314578,18.2460595 C19.30869,18.2460595 18.8041292,18.7506202 18.8041292,19.373388 C18.8041292,19.9961559 19.30869,20.5007166 19.9314578,20.5007166 L22.3735017,20.5007166 C22.9962695,20.5007166 23.5008303,19.9961559 23.5008303,19.373388 C23.5008303,18.7506202 22.9962695,18.2460595 22.3735017,18.2460595 L19.9314578,18.2460595 Z" id="Fill-9" fill="#000000"></path>
                            <path d="M8.76436299,15.5072947 L34.0118006,15.5072947 C34.6345684,15.5072947 35.1391292,15.002734 35.1391292,14.3799662 C35.1391292,13.7571983 34.6345684,13.2526376 34.0118006,13.2526376 L8.76436299,13.2526376 C8.14159517,13.2526376 7.63703443,13.7571983 7.63703443,14.3799662 C7.63703443,15.002734 8.14159517,15.5072947 8.76436299,15.5072947" id="Fill-11" fill="#000000"></path>
                            <path d="M11.7199009,28.2781708 L49.6448219,28.2781708 C50.6522891,28.2781708 51.4723695,29.0976496 51.4723695,30.1057184 C51.4723695,31.1137872 50.6522891,31.9340179 49.6448219,31.9340179 L11.7199009,31.9340179 C10.7118321,31.9340179 9.89175172,31.1137872 9.89175172,30.1057184 C9.89175172,29.0976496 10.7118321,28.2781708 11.7199009,28.2781708 M11.7199009,34.1886751 L49.6448219,34.1886751 C51.8960201,34.1886751 53.7270267,32.3569165 53.7270267,30.1057184 C53.7270267,27.8546706 51.8960201,26.0235137 49.6448219,26.0235137 L11.7199009,26.0235137 C9.46870272,26.0235137 7.63709458,27.8546706 7.63709458,30.1057184 C7.63709458,32.3569165 9.46870272,34.1886751 11.7199009,34.1886751" id="Fill-13" fill="#000000"></path>
                            <path d="M11.7199009,38.6192899 L49.6448219,38.6192899 C50.6522891,38.6192899 51.4723695,39.4393703 51.4723695,40.4468375 C51.4723695,41.4549062 50.6522891,42.275137 49.6448219,42.275137 L11.7199009,42.275137 C10.7118321,42.275137 9.89175172,41.4549062 9.89175172,40.4468375 C9.89175172,39.4393703 10.7118321,38.6192899 11.7199009,38.6192899 M11.7199009,44.5297942 L49.6448219,44.5297942 C51.8960201,44.5297942 53.7270267,42.6980356 53.7270267,40.4468375 C53.7270267,38.1957897 51.8960201,36.3646328 49.6448219,36.3646328 L11.7199009,36.3646328 C9.46870272,36.3646328 7.63709458,38.1957897 7.63709458,40.4468375 C7.63709458,42.6980356 9.46870272,44.5297942 11.7199009,44.5297942" id="Fill-15" fill="#000000"></path>
                            <path d="M11.7199009,48.960409 L49.6448219,48.960409 C50.6522891,48.960409 51.4723695,49.7804894 51.4723695,50.7885581 C51.4723695,51.7960253 50.6522891,52.6162561 49.6448219,52.6162561 L11.7199009,52.6162561 C10.7118321,52.6162561 9.89175172,51.7960253 9.89175172,50.7885581 C9.89175172,49.7804894 10.7118321,48.960409 11.7199009,48.960409 M11.7199009,54.8709132 L49.6448219,54.8709132 C51.8960201,54.8709132 53.7270267,53.0397563 53.7270267,50.7885581 C53.7270267,48.53736 51.8960201,46.7057518 49.6448219,46.7057518 L11.7199009,46.7057518 C9.46870272,46.7057518 7.63709458,48.53736 7.63709458,50.7885581 C7.63709458,53.0397563 9.46870272,54.8709132 11.7199009,54.8709132" id="Fill-17" fill="#000000"></path>
                            <path d="M11.7199009,59.3015431 L38.3232609,59.3015431 C39.3313296,59.3015431 40.1508085,60.1216235 40.1508085,61.1296922 C40.1508085,62.137761 39.3313296,62.9573902 38.3232609,62.9573902 L11.7199009,62.9573902 C10.7118321,62.9573902 9.89175172,62.137761 9.89175172,61.1296922 C9.89175172,60.1216235 10.7118321,59.3015431 11.7199009,59.3015431 M11.7199009,65.2120473 L38.3232609,65.2120473 C40.5743086,65.2120473 42.4060672,63.3808904 42.4060672,61.1296922 C42.4060672,58.8784941 40.5743086,57.046886 38.3232609,57.046886 L11.7199009,57.046886 C9.46870272,57.046886 7.63709458,58.8784941 7.63709458,61.1296922 C7.63709458,63.3808904 9.46870272,65.2120473 11.7199009,65.2120473" id="Fill-19" fill="#000000"></path>
                            <g id="Group-23" transform="translate(0.000000, -0.000000)">
                                <mask id="mask-3" fill="white">
                                    <use xlink:href="#path-2"></use>
                                </mask>
                                <g id="Clip-22"></g>
                                <path d="M74.7453429,66.6630467 C74.7453429,67.3650705 74.1737079,67.9367054 73.4716842,67.9367054 L51.3607947,67.9367054 C50.658771,67.9367054 50.087136,67.3650705 50.087136,66.6630467 L50.087136,63.7902839 C50.087136,63.087809 50.658771,62.5167756 51.3607947,62.5167756 L73.4716842,62.5167756 C74.1743094,62.5167756 74.7453429,63.087809 74.7453429,63.7902839 L74.7453429,66.6630467 Z M70.5279369,72.7326643 C70.2659564,73.8947332 69.2520224,74.7054893 68.0612289,74.7054893 L56.7712499,74.7054893 C55.5804565,74.7054893 54.5665225,73.8947332 54.3045419,72.7326643 L53.7323054,70.1913626 L71.1001735,70.1913626 L70.5279369,72.7326643 Z M57.8751175,56.4993436 C57.8751175,56.4441502 57.9203851,56.3988826 57.9755785,56.3988826 L66.8569003,56.3988826 C66.9120937,56.3988826 66.9567597,56.4441502 66.9567597,56.4993436 L66.9567597,60.2619681 L57.8751175,60.2619681 L57.8751175,56.4993436 Z M73.4716842,60.2619681 L69.2114169,60.2619681 L69.2114169,56.4993436 C69.2114169,55.5375951 68.6310592,54.7099952 67.8033089,54.3445458 L69.4552002,46.7720741 C69.929382,44.5962217 69.3541376,42.2821603 67.9148988,40.5819936 C66.5431854,38.9618348 64.5393799,38.0324203 62.4163146,38.0324203 C62.0613926,38.0324203 61.71008,38.0606938 61.364031,38.1110747 L61.364031,3.74514912 C61.364031,1.68013464 59.6840167,-3.00781368e-05 57.6190022,-3.00781368e-05 L3.74514912,-3.00781368e-05 C1.68013464,-3.00781368e-05 -3.00781368e-05,1.68013464 -3.00781368e-05,3.74514912 L-3.00781368e-05,15.8398687 C-3.00781368e-05,16.4624861 0.504681057,16.9671973 1.12729849,16.9671973 C1.75006631,16.9671973 2.25462705,16.4624861 2.25462705,15.8398687 L2.25462705,3.74514912 C2.25462705,2.92326403 2.92326403,2.25477744 3.74514912,2.25477744 L57.6190022,2.25477744 C58.4408873,2.25477744 59.1093739,2.92326403 59.1093739,3.74514912 L59.1093739,38.8367097 C58.2816235,39.2642704 57.5349338,39.8524484 56.9169785,40.5819936 C56.0651657,41.5888592 55.5058627,42.8097308 55.3002786,44.1121141 C55.2028255,44.727212 55.6228666,45.3045618 56.237363,45.4015638 C56.8535136,45.499017 57.4298107,45.0789758 57.5274143,44.4640283 C57.6683303,43.5692037 58.0525785,42.7303245 58.6381999,42.0389785 C59.5805479,40.9256363 60.957525,40.2870775 62.4163146,40.2870775 C63.8749539,40.2870775 65.251931,40.9256363 66.194279,42.0389785 C67.1829473,43.2067622 67.5783244,44.7965421 67.2522774,46.2915759 L65.5391772,54.1442254 L59.2933017,54.1442254 L58.2411685,49.3199931 C58.1083735,48.7119636 57.5086154,48.3265122 56.8993828,48.4587056 C56.2907517,48.5915006 55.9054507,49.1924618 56.0380953,49.8004913 L57.0291699,54.3445458 C56.200818,54.7099952 55.6204604,55.5375951 55.6204604,56.4993436 L55.6204604,60.2619681 L51.3607947,60.2619681 C49.41504,60.2619681 47.8318773,61.8446796 47.8318773,63.7902839 L47.8318773,66.6630467 C47.8318773,68.6088014 49.41504,70.1913626 51.3607947,70.1913626 L51.4206502,70.1913626 L52.1050782,73.2285024 C52.2273458,73.7702097 52.4357873,74.2713114 52.7149124,74.7194757 L3.74514912,74.7194757 C2.92326403,74.7194757 2.25462705,74.0509891 2.25462705,73.229104 L2.25462705,21.0130074 C2.25462705,20.3902396 1.75006631,19.8856789 1.12729849,19.8856789 C0.504681057,19.8856789 -3.00781368e-05,20.3902396 -3.00781368e-05,21.0130074 L-3.00781368e-05,73.229104 C-3.00781368e-05,75.2941185 1.68013464,76.9747344 3.74514912,76.9747344 L68.0612289,76.9601465 C70.3134798,76.9601465 72.2327657,75.4257103 72.7274007,73.2285024 L73.4118287,70.1913626 L73.4716842,70.1913626 C75.4168373,70.1913626 77,68.6088014 77,66.6630467 L77,63.7902839 C77,61.8446796 75.4168373,60.2619681 73.4716842,60.2619681 L73.4716842,60.2619681 Z" id="Fill-21" fill="#000000" mask="url(#mask-3)"></path>
                            </g>
                        </g>
                    </g>
                </g>
            </g>
        </g>
    </g>
</svg>