<?xml version="1.0" encoding="UTF-8"?>
<svg width="63px" height="82px" viewBox="0 0 63 82" version="1.1" xmlns="http://www.w3.org/2000/svg" xmlns:xlink="http://www.w3.org/1999/xlink">
    <title>to-do-list</title>
    <defs>
        <filter id="filter-1">
            <feColorMatrix in="SourceGraphic" type="matrix" values="0 0 0 0 0.047059 0 0 0 0 0.305882 0 0 0 0 0.615686 0 0 0 1.000000 0"></feColorMatrix>
        </filter>
    </defs>
    <g id="ESG-Homepage" stroke="none" stroke-width="1" fill="none" fill-rule="evenodd">
        <g id="ESG-HOMEPAGE" transform="translate(-825.000000, -3462.000000)">
            <g id="Benefit" transform="translate(176.000000, 2993.358586)">
                <g id="Point-7" transform="translate(566.892025, 432.284045)">
                    <g id="to-do-list" transform="translate(82.107975, 37.037369)" filter="url(#filter-1)">
                        <g>
                            <path d="M13.733055,34.4888775 L21.0963375,25.6304475 C21.5133975,25.1286525 21.4447275,24.3839925 20.9429325,23.9669325 C20.4414525,23.55003 19.6964775,23.6187 19.2794175,24.1203375 L12.9677625,31.71357 L11.58822,29.47266 C11.2462875,28.9171575 10.518795,28.74375 9.9629775,29.0859975 C9.407475,29.4280875 9.2343825,30.1557375 9.576315,30.7110825 L11.818485,34.352955 C12.242475,35.04123 13.21677,35.1100575 13.733055,34.4888775 L13.733055,34.4888775 Z" id="Path" fill="#000000" fill-rule="nonzero"></path>
                            <path d="M9.57663,46.3035825 L11.8188,49.945455 C12.242475,50.63373 13.21677,50.7025575 13.733055,50.08122 L21.0963375,41.22279 C21.5133975,40.720995 21.4447275,39.976335 20.9429325,39.559275 C20.4414525,39.1423725 19.6964775,39.210885 19.2794175,39.71268 L12.9677625,47.3059125 L11.58822,45.0650025 C11.2462875,44.5095 10.518795,44.3360925 9.9629775,44.67834 C9.4076325,45.0205875 9.23454,45.7482375 9.57663,46.3035825 L9.57663,46.3035825 Z" id="Path" fill="#000000" fill-rule="nonzero"></path>
                            <path d="M9.57663,62.001135 L11.8188,65.6430075 C12.242475,66.3312825 13.21677,66.40011 13.733055,65.7787725 L21.0963375,56.9203425 C21.5133975,56.4185475 21.4447275,55.6738875 20.9429325,55.2568275 C20.4414525,54.839925 19.6964775,54.9084375 19.2794175,55.4102325 L12.9677625,63.003465 L11.58822,60.762555 C11.2462875,60.2070525 10.518795,60.0338025 9.9629775,60.3758925 C9.4076325,60.71814 9.23454,61.44579 9.57663,62.001135 L9.57663,62.001135 Z" id="Path" fill="#000000" fill-rule="nonzero"></path>
                            <path d="M61.81875,66.6862875 C61.166385,66.6862875 60.6375,67.215015 60.6375,67.8675375 L60.6375,76.46625 C60.6375,77.4649575 59.8249575,78.2775 58.82625,78.2775 L4.17375,78.2775 C3.1750425,78.2775 2.3625,77.4649575 2.3625,76.46625 L2.3625,24.6974175 C2.3625,24.044895 1.833615,23.5161675 1.18125,23.5161675 C0.528885,23.5161675 4.47641924e-15,24.044895 4.47641924e-15,24.6974175 L4.47641924e-15,76.46625 C4.47641924e-15,78.76764 1.87236,80.64 4.17375,80.64 L58.82625,80.64 C61.12764,80.64 63,78.76764 63,76.46625 L63,67.8675375 C63,67.2151725 62.471115,66.6862875 61.81875,66.6862875 Z" id="Path" fill="#000000" fill-rule="nonzero"></path>
                            <path d="M58.82625,9.1020825 L53.04789,9.1020825 L53.04789,4.221 C53.04789,1.8936225 51.154425,0 48.82689,0 C46.499355,0 44.60589,1.893465 44.60589,4.221 L44.60589,9.1020825 L35.721,9.1020825 L35.721,4.221 C35.721,1.893465 33.8273775,0 31.5,0 C29.1726225,0 27.279,1.893465 27.279,4.221 L27.279,9.1020825 L18.3939525,9.1020825 L18.3939525,4.221 C18.3939525,1.8936225 16.5004875,0 14.1729525,0 C11.845575,0 9.9519525,1.893465 9.9519525,4.221 L9.9519525,9.1020825 L4.17375,9.1020825 C1.87236,9.1020825 -4.47641924e-15,10.9744425 -4.47641924e-15,13.2758325 L-4.47641924e-15,19.1849175 C-4.47641924e-15,19.83744 0.528885,20.3661675 1.18125,20.3661675 C1.833615,20.3661675 2.3625,19.83744 2.3625,19.1849175 L2.3625,13.2758325 C2.3625,12.277125 3.1750425,11.4645825 4.17375,11.4645825 L9.9519525,11.4645825 L9.9519525,13.34025 C9.9519525,15.6676275 11.8454175,17.56125 14.1729525,17.56125 C16.5004875,17.56125 18.3939525,15.667785 18.3939525,13.34025 L18.3939525,11.4645825 L27.279,11.4645825 L27.279,13.34025 C27.279,15.6676275 29.172465,17.56125 31.5,17.56125 C33.827535,17.56125 35.721,15.667785 35.721,13.34025 L35.721,11.4645825 L44.6060475,11.4645825 L44.6060475,13.34025 C44.6060475,15.6676275 46.4995125,17.56125 48.8270475,17.56125 C51.154425,17.56125 53.0480475,15.667785 53.0480475,13.34025 L53.0480475,11.4645825 L58.82625,11.4645825 C59.8249575,11.4645825 60.6375,12.277125 60.6375,13.2758325 L60.6375,62.3550375 C60.6375,63.00756 61.166385,63.5362875 61.81875,63.5362875 C62.471115,63.5362875 63,63.00756 63,62.3550375 L63,13.2758325 C63,10.9744425 61.12764,9.1020825 58.82625,9.1020825 L58.82625,9.1020825 Z M16.03161,13.34025 C16.03161,14.3651025 15.1979625,15.19875 14.17311,15.19875 C13.148415,15.19875 12.31461,14.3651025 12.31461,13.34025 C12.31461,10.8222975 12.31461,5.00913 12.31461,4.221 C12.31461,3.1961475 13.1482575,2.3625 14.17311,2.3625 C15.1979625,2.3625 16.03161,3.1961475 16.03161,4.221 L16.03161,13.34025 Z M33.3585,13.34025 C33.3585,14.3651025 32.5248525,15.19875 31.5,15.19875 C30.4751475,15.19875 29.6415,14.3651025 29.6415,13.34025 C29.6415,10.8222975 29.6415,5.00913 29.6415,4.221 C29.6415,3.1961475 30.4751475,2.3625 31.5,2.3625 C32.5248525,2.3625 33.3585,3.1961475 33.3585,4.221 L33.3585,13.34025 Z M50.6855475,13.34025 C50.6855475,14.3651025 49.8519,15.19875 48.8270475,15.19875 C47.802195,15.19875 46.9685475,14.3651025 46.9685475,13.34025 C46.9685475,10.8222975 46.9685475,5.00913 46.9685475,4.221 C46.9685475,3.1961475 47.802195,2.3625 48.8270475,2.3625 C49.8517425,2.3625 50.6855475,3.1961475 50.6855475,4.221 L50.6855475,13.34025 Z" id="Shape" fill="#000000" fill-rule="nonzero"></path>
                            <path d="M26.1038925,35.4663225 L50.9888925,35.4663225 C53.0297775,35.4663225 54.6901425,33.8059575 54.6901425,31.7650725 C54.6901425,29.7241875 53.0297775,28.0638225 50.9888925,28.0638225 L26.1038925,28.0638225 C24.0630075,28.0638225 22.4026425,29.7241875 22.4026425,31.7650725 C22.4026425,33.8059575 24.0630075,35.4663225 26.1038925,35.4663225 Z M26.1038925,30.4263225 L50.9888925,30.4263225 C51.727095,30.4263225 52.3276425,31.02687 52.3276425,31.7650725 C52.3276425,32.503275 51.727095,33.1038225 50.9888925,33.1038225 L26.1038925,33.1038225 C25.36569,33.1038225 24.7651425,32.503275 24.7651425,31.7650725 C24.7651425,31.02687 25.36569,30.4263225 26.1038925,30.4263225 Z" id="Shape" fill="#000000" fill-rule="nonzero"></path>
                            <path d="M26.1038925,51.09237 L50.9888925,51.09237 C53.0297775,51.09237 54.6901425,49.432005 54.6901425,47.39112 C54.6901425,45.350235 53.0297775,43.68987 50.9888925,43.68987 L26.1038925,43.68987 C24.0630075,43.68987 22.4026425,45.350235 22.4026425,47.39112 C22.4026425,49.432005 24.0630075,51.09237 26.1038925,51.09237 Z M26.1038925,46.05237 L50.9888925,46.05237 C51.727095,46.05237 52.3276425,46.6529175 52.3276425,47.39112 C52.3276425,48.1293225 51.727095,48.72987 50.9888925,48.72987 L26.1038925,48.72987 C25.36569,48.72987 24.7651425,48.1293225 24.7651425,47.39112 C24.7651425,46.6529175 25.36569,46.05237 26.1038925,46.05237 Z" id="Shape" fill="#000000" fill-rule="nonzero"></path>
                            <path d="M26.1038925,66.71826 L50.9888925,66.71826 C53.0297775,66.71826 54.6901425,65.057895 54.6901425,63.01701 C54.6901425,60.976125 53.0297775,59.31576 50.9888925,59.31576 L26.1038925,59.31576 C24.0630075,59.31576 22.4026425,60.976125 22.4026425,63.01701 C22.4026425,65.057895 24.0630075,66.71826 26.1038925,66.71826 Z M26.1038925,61.67826 L50.9888925,61.67826 C51.727095,61.67826 52.3276425,62.2788075 52.3276425,63.01701 C52.3276425,63.7552125 51.727095,64.35576 50.9888925,64.35576 L26.1038925,64.35576 C25.36569,64.35576 24.7651425,63.7552125 24.7651425,63.01701 C24.7651425,62.2788075 25.36569,61.67826 26.1038925,61.67826 Z" id="Shape" fill="#000000" fill-rule="nonzero"></path>
                        </g>
                    </g>
                </g>
            </g>
        </g>
    </g>
</svg>